<?xml version="1.0" encoding="UTF-8" standalone="no"?>
<!DOCTYPE svg PUBLIC "-//W3C//DTD SVG 1.1//EN"
"http://www.w3.org/Graphics/SVG/1.1/DTD/svg11.dtd">
<svg xmlns="http://www.w3.org/2000/svg"
xmlns:xlink="http://www.w3.org/1999/xlink" xml:space="preserve"
width="142pt" height="127pt"
viewBox="0 0 142 127">
<g font-family="sans-serif" font-weight="bold">
<g transform="translate(0,0.06826) scale(0.49787) translate(108.4204,-45.5979)" stroke="#7b7569" fill="none">
<path d="M176.5796,300.41 L-108.4204,300.41 -108.2375,50.4101 176.7625,50.4101 z" fill="#7b7569"/>
</g><g transform="translate(0,0.06826) scale(0.49787) translate(108.4204,-45.5979)" stroke="#d9d4ad" fill="none">
<path d="M-98.2448,60.4101 L-98.413,290.41 171.587,290.41 176.587,290.4137 176.7552,60.4137 171.7552,60.4101 171.7552,50.4101 -98.2448,50.4101 -98.2448,60.4101 z" fill="#d9d4ad"/>
</g><g transform="translate(0,0.06826) scale(0.49787) translate(108.4204,-45.5979)" stroke="#7b7569" stroke-width="1.8077" fill="none">
<path d="M-38.2543,50.5999 L-108.2563,50.5999 -108.2563,45.5979 -38.2543,45.5979 z" fill="#7b7569"/>

<path d="M176.7942,50.8346 L16.7922,50.8346 16.7922,45.8326 176.7942,45.8326 z" fill="#7b7569"/>

<path d="M176.6327,299.2935 L171.6307,299.2935 171.6307,229.2915 176.6327,229.2915 z" fill="#7b7569"/>

<path d="M176.7562,131.404 L171.7542,131.404 171.7542,60.4091 176.7562,60.4091 z" fill="#7b7569"/>
</g><g transform="translate(0,0.06826) scale(0.49787) translate(108.4204,-45.5979)" stroke="#111111" stroke-width="1.8077" fill="none">
<path d="M171.6307,229.2915 L176.6327,229.2915 176.6327,299.2935 176.5804,299.2935 176.5796,300.41 -108.4204,300.41 -108.2376,50.5999 -108.2563,50.5999 -108.2563,45.5979 -38.2543,45.5979 -38.2543,50.5999 -98.2448,50.5999 -98.2448,60.4101 -98.413,290.41 171.6307,290.41 z M176.7942,50.8346 L176.7622,50.8346 176.7552,60.4091 176.7562,60.4091 176.7562,131.404 171.7542,131.404 171.7542,60.4091 171.7552,60.4091 171.7552,50.8346 16.7922,50.8346 16.7922,45.8326 176.7942,45.8326 z"/></g></g>
</svg>