<?xml version="1.0" encoding="UTF-8" standalone="no"?>
<!DOCTYPE svg PUBLIC "-//W3C//DTD SVG 1.1//EN"
"http://www.w3.org/Graphics/SVG/1.1/DTD/svg11.dtd">
<svg xmlns="http://www.w3.org/2000/svg"
xmlns:xlink="http://www.w3.org/1999/xlink" xml:space="preserve"
width="155pt" height="154pt"
viewBox="0 0 155 154">
<g font-family="sans-serif" font-weight="bold">
<g transform="translate(0.44367,0) scale(0.49677) translate(118.4423,-20.4101)" stroke="#7b7569" fill="none">
<path d="M191.5577,330.41 L-118.4423,330.41 -118.2156,20.4101 191.7844,20.4101 z" fill="#7b7569"/>
</g><g transform="translate(0.44367,0) scale(0.49677) translate(118.4423,-20.4101)" stroke="#d9d4ad" fill="none">
<path d="M-98.2302,40.4101 L-98.4277,310.41 171.5723,310.41 171.6381,220.4464 191.6381,220.461 191.7039,130.461 171.7039,130.4464 171.7698,40.4101 11.7698,40.4101 11.7698,20.4101 -38.2302,20.4101 -38.2302,40.4101 z" fill="#d9d4ad"/>
</g><g transform="translate(0.44367,0) scale(0.49677) translate(118.4423,-20.4101)" stroke="#111111" stroke-width="1.81169" fill="none">
<path d="M-38.2302,40.4101 L-98.2302,40.4101 -98.4277,310.41 171.5723,310.41 171.6381,220.4463 191.6381,220.461 191.5577,330.41 -118.4423,330.41 -118.2156,20.4101 -38.2302,20.4101 z M191.7039,130.461 L171.7039,130.4464 171.7698,40.4101 11.7698,40.4101 11.7698,20.4101 191.7844,20.4101 z"/>
</g><g transform="translate(0.44367,0) scale(0.49677) translate(118.4423,-20.4101)" stroke="#000000" stroke-width="0.6039" opacity="1" fill="none">
<path d="M-38.23021,25.41007 L-33.23021,25.41007 -33.23021,75.41007 C-11.13882,75.41007 6.76979,57.50146 6.76979,35.41007 L6.76979,25.41007 11.76979,25.41007"/>

<line x1="-38.23021" y1="35.41007" x2="11.76979" y2="35.41007"/>

<line x1="-28.23021" y1="35.41007" x2="-28.23021" y2="75.30657"/>

<path d="M186.70394,130.45736 L186.70028,135.45736 96.70031,135.39153 C96.66799,179.5743 132.45901,215.41771 176.64178,215.45002 L186.64178,215.45733 186.63812,220.45733"/>

<line x1="176.70394" y1="130.45004" x2="176.63812" y2="220.45002"/>

<line x1="176.69663" y1="140.45004" x2="96.89215" y2="140.39168"/></g></g>
</svg>