<?xml version="1.0" encoding="UTF-8" standalone="no"?>
<!DOCTYPE svg PUBLIC "-//W3C//DTD SVG 1.1//EN"
"http://www.w3.org/Graphics/SVG/1.1/DTD/svg11.dtd">
<svg xmlns="http://www.w3.org/2000/svg"
xmlns:xlink="http://www.w3.org/1999/xlink" xml:space="preserve"
width="152pt" height="134pt"
viewBox="0 0 152 134">
<g font-family="sans-serif" font-weight="bold">
<g transform="translate(0.3148,0) scale(0.4963) translate(83.4084,-24.00322)" stroke="#7b7569" fill="none">
<path d="M156.5916,294.0032 L-83.4084,294.0032 -83.4084,54.0032 156.5916,54.0032 z" fill="#7b7569"/>
</g><g transform="translate(0.3148,0) scale(0.4963) translate(83.4084,-24.00322)" stroke="#d9d4ad" fill="none">
<path d="M-73.4084,64.0032 L-73.4084,284.0032 146.5916,284.0032 146.5916,199.0032 156.5916,199.0032 156.5916,124.0032 146.5916,124.0032 146.5916,64.0032 26.5916,64.0032 26.5916,54.0032 -13.4084,54.0032 -13.4084,64.0032 z" fill="#d9d4ad"/>
</g><g transform="translate(0.3148,0) scale(0.4963) translate(83.4084,-24.00322)" stroke="#111111" stroke-width="1.81343" fill="none">
<path d="M-13.4084,64.0032 L-73.4084,64.0032 -73.4084,284.0032 146.5916,284.0032 146.5916,199.0032 156.5916,199.0032 156.5916,294.0032 -83.4084,294.0032 -83.4084,54.0032 -13.4084,54.0032 z M156.5916,124.0032 L146.5916,124.0032 146.5916,64.0032 26.5916,64.0032 26.5916,54.0032 156.5916,54.0032 z"/>
</g><g transform="translate(0.3148,0) scale(0.4963) translate(83.4084,-24.00322)" stroke="#000000" stroke-width="0.60448" opacity="1" fill="none">
<path d="M-13.40836,64.00322 L-8.40836,64.00322 -8.40836,24.00322 C8.16018,24.00322 21.59164,37.43468 21.59164,54.00322 L21.59164,64.00322 26.59164,64.00322"/>

<line x1="-13.40836" y1="54.00322" x2="26.59164" y2="54.00322"/>

<line x1="-3.40836" y1="54.00322" x2="-3.40836" y2="24.08372"/>

<path d="M146.59164,124.00322 L146.59164,129.00322 221.59164,129.00322 C221.59164,164.90173 192.49015,194.00322 156.59164,194.00322 L146.59164,194.00322 146.59164,199.00322"/>

<line x1="156.59164" y1="124.00322" x2="156.59164" y2="199.00322"/>

<line x1="156.59164" y1="134.00322" x2="221.43064" y2="134.00322"/></g></g>
</svg>