<?xml version="1.0" encoding="UTF-8" standalone="no"?>
<!DOCTYPE svg PUBLIC "-//W3C//DTD SVG 1.1//EN"
"http://www.w3.org/Graphics/SVG/1.1/DTD/svg11.dtd">
<svg xmlns="http://www.w3.org/2000/svg"
xmlns:xlink="http://www.w3.org/1999/xlink" xml:space="preserve"
width="137pt" height="140pt"
viewBox="0 0 137 140">
<g font-family="sans-serif" font-weight="bold">
<g transform="translate(0,0.25432) scale(0.49818) translate(-45.8487,83.6354)" stroke="#7b7569" fill="none">
<path d="M320.8488,196.3656 L45.8487,196.3656 45.8487,-83.6344 320.8488,-83.6344 z" fill="#7b7569"/>
</g><g transform="translate(0,0.25432) scale(0.49818) translate(-45.8487,83.6354)" stroke="#d9d4ad" fill="none">
<path d="M50.8487,-73.6344 L50.8487,-3.6344 45.8487,-3.6344 45.8487,86.3656 50.8487,86.3656 50.8487,186.3656 140.8488,186.3656 140.8488,196.3656 240.8488,196.3656 240.8488,186.3656 310.8488,186.3656 310.8488,126.3656 320.8488,126.3656 320.8488,-3.5982 310.8488,-3.5982 310.8488,-73.6344 310.8488,-83.6344 50.8487,-83.6344 50.8487,-73.6344 z" fill="#d9d4ad"/>
</g><g transform="translate(0,0.25432) scale(0.49818) translate(-45.8487,83.6354)" stroke="#7b7569" stroke-width="1.80657" fill="none">
<path d="M106.53,-73.6334 L46.528,-73.6334 46.528,-83.6354 106.53,-83.6354 z" fill="#7b7569"/>

<path d="M319.3894,-73.6334 L269.3874,-73.6334 269.3874,-83.6354 319.3894,-83.6354 z" fill="#7b7569"/>
</g><g transform="translate(0,0.25432) scale(0.49818) translate(-45.8487,83.6354)" stroke="#111111" stroke-width="1.80657" fill="none">
<path d="M320.8488,196.3656 L240.8488,196.3656 240.8488,186.3656 310.8488,186.3656 310.8488,126.3656 320.8488,126.3656 z M50.8487,186.3656 L140.8488,186.3656 140.8488,196.3656 45.8487,196.3656 45.8487,86.3656 50.8487,86.3656 z M319.3894,-83.6344 L320.8488,-83.6344 320.8488,-3.5982 310.8488,-3.5982 310.8488,-73.6334 269.3874,-73.6334 269.3874,-83.6354 319.3894,-83.6354 z M106.53,-73.6334 L50.8487,-73.6334 50.8487,-3.6344 45.8487,-3.6344 45.8487,-83.6344 46.528,-83.6344 46.528,-83.6354 106.53,-83.6354 z"/>
</g><g transform="translate(0,0.25432) scale(0.49818) translate(-45.8487,83.6354)" stroke="#ffffff" stroke-width="0.60219" opacity="1" fill="none">
<path d="M106.52904,-53.63438 L269.38838,-53.63438 269.38838,-83.63438 106.52904,-83.63438 z" fill="#ffffff"/>
</g><g transform="translate(0,0.25432) scale(0.49818) translate(-45.8487,83.6354)" stroke="#000000" stroke-width="0.60219" opacity="1" fill="none">
<path d="M106.52904,-53.63438 L269.38838,-53.63438 269.38838,-83.63438 106.52904,-83.63438 z"/>

<path d="M110.52904,-53.63438 L110.52904,-83.63438"/>

<path d="M265.38838,-53.63438 L265.38838,-83.63438"/>

<line x1="106.52904" y1="-73.63438" x2="269.38838" y2="-73.63438"/>

<line x1="106.52904" y1="-63.63438" x2="269.38838" y2="-63.63438"/>

<line x1="187.95871" y1="-53.63438" x2="187.95871" y2="-83.63438"/>

<line x1="177.95871" y1="-68.63438" x2="187.95871" y2="-83.63438"/>

<line x1="197.95871" y1="-68.63438" x2="187.95871" y2="-83.63438"/>

<path d="M240.84875,196.36562 L235.84875,196.36562 235.84875,96.36562 C186.14312,96.36562 145.84875,136.65999 145.84875,186.36562 L145.84875,196.36562 140.84875,196.36562"/>

<line x1="240.84875" y1="186.36562" x2="140.84875" y2="186.36562"/>

<line x1="230.84875" y1="186.36562" x2="230.84875" y2="96.58412"/>

<path d="M320.84875,-3.59825 L320.84875,1.40175 190.88488,1.40175 C190.88488,67.65597 244.59454,121.36562 310.84875,121.36562 L320.84875,121.36562 320.84875,126.36562"/>

<line x1="310.84875" y1="-3.59825" x2="310.84875" y2="126.36562"/>

<line x1="310.84875" y1="6.40175" x2="191.1723" y2="6.40175"/>

<path d="M45.84875,86.36562 L45.84875,81.36562 130.84875,81.36562 C130.84875,37.18284 95.03153,1.36562 50.84875,1.36562 L45.84875,1.36562 45.84875,-3.63438"/>

<line x1="50.84875" y1="86.36562" x2="50.84875" y2="-3.63438"/>

<line x1="50.84875" y1="76.36562" x2="130.659" y2="76.36562"/></g></g>
</svg>