<?xml version="1.0" standalone="no"?>
<!DOCTYPE svg PUBLIC "-//W3C//DTD SVG 20010904//EN"
 "http://www.w3.org/TR/2001/REC-SVG-20010904/DTD/svg10.dtd">
<svg version="1.0" xmlns="http://www.w3.org/2000/svg"
 width="1280.000000pt" height="619.000000pt" viewBox="0 0 1280.000000 619.000000"
 preserveAspectRatio="xMidYMid meet">
<metadata>
Created by potrace 1.15, written by Peter Selinger 2001-2017
</metadata>
<g transform="translate(0.000000,619.000000) scale(0.100000,-0.100000)"
fill="#000000" stroke="none">
<path d="M6426 5410 c-22 -17 -45 -30 -52 -30 -7 0 -28 -18 -45 -40 -18 -22
-38 -40 -45 -40 -20 0 -53 -49 -59 -89 -3 -20 -13 -51 -21 -69 -22 -50 -18
-69 38 -184 28 -59 49 -111 45 -114 -3 -3 -35 6 -72 21 -137 54 -227 45 -378
-42 -77 -45 -115 -75 -169 -134 -50 -55 -75 -75 -88 -72 -10 3 -21 0 -24 -6
-4 -6 -18 -8 -32 -5 -29 7 -54 -10 -54 -38 0 -11 -7 -35 -16 -54 -9 -19 -14
-49 -12 -68 3 -24 -1 -37 -14 -45 -11 -7 -20 -29 -24 -61 -7 -53 -14 -60 -34
-35 -7 9 -20 14 -29 12 -9 -2 -37 7 -63 20 -57 28 -78 29 -78 5 0 -27 46 -154
71 -197 l22 -37 -30 6 c-17 4 -34 3 -37 -2 -3 -6 -24 -8 -45 -5 -32 4 -41 2
-50 -15 -9 -17 -17 -19 -52 -15 -42 6 -42 6 -36 -23 3 -16 9 -37 12 -46 5 -13
-1 -18 -32 -23 -139 -24 -219 -79 -273 -189 -46 -93 -49 -158 -15 -295 29
-117 26 -141 -16 -141 -21 0 -26 -7 -57 -80 -36 -86 -41 -106 -32 -146 7 -30
5 -40 -8 -50 -15 -11 -13 -18 15 -80 18 -40 35 -96 39 -131 l7 -63 -47 0 c-59
0 -76 -26 -53 -82 8 -19 13 -46 10 -60 -3 -14 5 -55 16 -92 14 -45 24 -118 31
-224 14 -234 49 -338 148 -450 93 -104 97 -110 81 -130 -8 -9 -23 -32 -33 -51
-18 -33 -18 -35 -1 -48 11 -7 28 -13 39 -13 12 -1 39 -9 61 -20 22 -11 48 -19
57 -20 9 0 20 -5 23 -10 3 -6 19 -10 35 -10 30 0 48 -14 31 -25 -6 -3 -10 -18
-9 -33 0 -15 -5 -42 -13 -60 -13 -32 -13 -35 14 -58 33 -28 63 -31 96 -8 17
13 28 14 45 6 19 -8 28 -6 52 14 36 29 40 29 47 3 4 -13 -5 -41 -23 -73 -23
-40 -29 -64 -29 -111 0 -33 2 -68 5 -77 6 -21 34 -24 52 -6 10 10 21 3 53 -35
26 -30 49 -47 63 -47 14 0 28 -10 37 -26 12 -23 12 -27 -6 -40 -10 -8 -26 -14
-36 -14 -28 0 -42 -27 -36 -67 6 -32 2 -41 -30 -76 -33 -37 -35 -43 -31 -89 6
-58 34 -93 90 -110 34 -10 42 -9 66 9 42 31 50 67 24 102 -20 27 -20 30 -4 44
36 32 66 36 169 21 54 -8 125 -21 158 -29 89 -22 252 -20 316 4 l51 20 24 -28
c15 -19 40 -32 78 -41 49 -11 59 -11 101 6 25 11 55 27 66 38 20 18 22 18 87
-4 37 -12 110 -26 164 -32 83 -8 112 -6 209 11 134 25 197 26 245 6 33 -13 36
-18 29 -42 -19 -79 -18 -89 13 -112 41 -29 65 -27 107 10 30 27 35 37 35 76 0
39 -5 50 -35 79 -19 18 -35 35 -35 38 0 3 11 16 25 30 36 36 32 59 -16 90 -36
24 -40 31 -34 54 6 27 50 71 71 72 24 0 61 41 72 78 11 37 14 39 49 38 l38 -1
6 62 c8 85 20 97 86 89 49 -6 53 -5 57 16 3 13 8 37 11 53 4 17 7 42 7 56 1
25 4 27 60 32 33 3 67 12 77 21 10 9 25 16 35 16 49 0 75 52 41 80 -9 7 -14
19 -11 25 2 7 0 17 -5 22 -6 6 21 29 71 62 72 47 160 135 189 190 28 51 65
216 88 391 25 189 35 265 49 343 7 44 -7 67 -43 67 -35 0 -38 24 -8 77 22 40
24 51 14 69 -10 19 -8 27 10 53 31 44 65 207 54 262 -7 37 -15 47 -53 69 -58
34 -62 61 -20 152 31 66 32 75 28 161 -5 107 -25 154 -93 222 -49 50 -102 79
-160 89 -73 13 -76 15 -73 49 4 37 -25 57 -84 57 -26 0 -38 5 -38 14 0 15 -21
26 -51 26 -24 0 -24 7 1 48 11 18 19 46 18 61 -1 16 4 36 11 45 8 9 15 31 17
49 1 18 4 43 6 56 3 21 -3 27 -37 37 -39 11 -41 10 -85 -30 l-45 -41 -3 34
c-2 23 -9 35 -23 38 -22 6 -23 10 -4 43 20 35 18 50 -5 50 -18 0 -20 7 -20 63
0 34 -4 68 -9 75 -12 19 -118 6 -131 -17 -12 -18 -5 -25 -71 79 -87 136 -293
251 -451 251 -75 0 -134 -13 -191 -43 -63 -32 -63 -29 8 130 30 68 36 91 31
125 -3 23 -7 63 -10 88 -4 45 -30 99 -47 99 -5 0 -16 18 -25 40 -16 41 -39 60
-69 60 -8 0 -29 16 -46 35 -40 45 -78 46 -133 5z m607 -644 c79 -19 158 -75
213 -151 43 -61 74 -122 74 -146 0 -7 -10 -9 -30 -5 -17 3 -30 1 -30 -4 0 -6
-8 -10 -18 -10 -10 0 -27 -6 -37 -14 -16 -12 -17 -18 -7 -40 6 -14 29 -37 52
-51 24 -15 40 -33 40 -44 0 -11 14 -29 30 -41 38 -27 60 -69 60 -115 0 -29 -4
-35 -20 -35 -12 0 -34 10 -51 22 l-29 22 -27 -26 -26 -27 -50 27 -50 26 -21
-25 c-12 -14 -40 -31 -63 -37 -55 -16 -60 -27 -24 -48 19 -11 31 -27 33 -43 2
-17 8 -25 18 -22 8 2 31 8 51 14 58 16 119 -10 133 -58 9 -33 -9 -48 -71 -56
-61 -9 -89 -2 -128 34 -35 33 -139 109 -178 131 -20 11 -36 27 -35 35 2 8 25
20 51 27 93 24 176 100 202 186 25 84 20 151 -16 219 -39 73 -52 84 -136 118
-68 28 -68 28 -67 67 1 28 9 44 28 61 31 27 49 28 129 9z m-1003 -9 c42 -21
37 -50 -14 -74 -117 -57 -163 -141 -153 -277 3 -39 11 -88 17 -110 15 -50 91
-131 152 -162 72 -37 72 -44 -5 -84 -88 -45 -95 -50 -143 -94 -27 -23 -58 -48
-69 -54 -28 -14 -85 -1 -101 24 -20 29 5 61 54 69 71 12 82 15 82 29 0 8 14
19 30 25 36 12 38 26 8 42 -13 7 -27 18 -31 25 -10 18 -49 18 -94 -1 -19 -8
-39 -15 -44 -15 -4 0 -9 21 -11 48 -3 43 -5 47 -27 44 -14 -1 -32 -9 -41 -17
-9 -8 -22 -15 -28 -15 -20 0 15 91 49 126 18 19 28 34 21 34 -25 0 -10 30 38
76 40 39 47 50 39 66 -5 10 -15 18 -22 18 -7 1 -25 12 -42 25 l-30 25 25 46
c32 59 97 117 180 160 69 35 119 42 160 21z m293 -32 c8 -8 25 -30 36 -49 20
-32 21 -43 15 -138 -5 -78 -11 -109 -25 -127 -11 -13 -19 -32 -19 -42 0 -14
-7 -19 -29 -19 -16 0 -34 6 -40 14 -6 7 -31 14 -56 14 -53 1 -56 -8 -24 -71
37 -72 41 -95 16 -112 -12 -8 -42 -15 -68 -15 -86 0 -143 62 -156 167 -5 44
-2 53 18 71 12 12 30 22 40 22 9 0 22 6 29 14 6 8 21 16 33 18 17 2 23 11 25
35 3 27 9 34 48 49 46 18 54 36 34 75 -15 27 13 76 53 93 42 19 53 19 70 1z
m413 -52 c29 -68 34 -104 18 -135 -14 -28 -11 -68 5 -68 4 0 34 9 67 20 71 25
85 21 82 -22 -3 -28 2 -34 31 -48 60 -30 80 -120 38 -181 -25 -37 -90 -68
-146 -68 -31 -1 -33 1 -27 27 15 60 29 143 24 147 -3 3 -33 -9 -67 -27 -71
-36 -94 -32 -99 20 -2 22 -9 32 -27 36 -34 9 -58 59 -50 104 3 21 6 60 6 87 0
95 32 145 90 145 35 0 40 -4 55 -37z m-231 -303 c12 -47 36 -108 53 -136 18
-28 32 -56 32 -63 0 -16 -222 -15 -238 1 -8 8 -3 26 22 72 19 34 40 88 47 121
16 76 26 97 47 93 11 -2 22 -29 37 -88z m-1100 -409 c70 -32 77 -47 78 -163 2
-108 -10 -152 -32 -127 -7 8 -30 43 -53 78 -25 39 -70 87 -115 124 -40 33 -73
63 -73 68 0 4 10 15 22 23 31 22 123 20 173 -3z m2310 -60 c45 -26 42 -43 -10
-65 -53 -21 -127 -85 -181 -156 -55 -72 -68 -68 -60 23 16 181 129 270 251
198z m-2573 -19 c9 -9 9 -15 0 -24 -7 -7 -12 -20 -12 -29 0 -9 -7 -19 -15 -23
-21 -8 -19 -21 11 -66 32 -47 21 -70 -31 -70 -18 0 -46 -7 -61 -15 -16 -8 -40
-15 -53 -15 -20 0 -22 3 -16 23 12 37 11 72 -2 70 -7 -2 -37 -6 -67 -9 -66 -8
-76 4 -57 66 15 50 89 107 146 112 58 4 143 -6 157 -20z m1434 -7 c118 -21
171 -47 279 -139 138 -116 209 -210 284 -373 35 -77 44 -110 56 -209 17 -137
19 -398 5 -529 -17 -150 -109 -388 -196 -506 -52 -71 -192 -199 -265 -242 -75
-44 -136 -63 -237 -75 -72 -8 -74 -8 -83 15 -5 13 -13 23 -19 23 -5 0 -10 8
-10 19 0 10 -7 24 -16 32 -20 17 -34 -2 -34 -48 0 -17 -4 -34 -8 -37 -16 -10
-158 25 -217 54 -33 16 -94 61 -138 101 -146 135 -217 269 -308 589 -28 102
-41 485 -16 523 8 12 22 58 31 100 20 97 91 265 151 359 83 127 179 212 345
306 91 51 235 65 396 37z m-889 -57 c19 -15 16 -45 -5 -60 -10 -7 -44 -52 -76
-100 -66 -102 -91 -114 -80 -40 11 80 44 173 70 199 26 26 61 26 91 1z m2373
-43 c59 -41 79 -74 86 -143 6 -56 5 -61 -19 -77 -27 -18 -51 -12 -77 19 -23
29 -32 17 -28 -36 l3 -53 -34 2 c-23 1 -44 12 -70 37 -20 20 -42 36 -49 36
-13 0 -25 25 -36 77 -7 29 -5 32 23 38 34 7 39 20 17 44 -16 19 -28 76 -18 86
4 4 42 5 84 3 64 -4 84 -9 118 -33z m-698 -34 c32 -29 33 -32 36 -124 4 -93
-8 -145 -28 -132 -6 4 -22 32 -36 63 -14 31 -43 83 -65 114 -46 68 -48 83 -11
96 46 17 70 13 104 -17z m376 -122 c35 -26 42 -36 42 -65 0 -18 9 -57 20 -86
11 -29 20 -58 20 -65 0 -14 -47 -37 -106 -52 -50 -13 -65 -30 -73 -78 -3 -20
-11 -38 -17 -40 -21 -7 -72 47 -100 103 -23 47 -26 62 -20 110 11 93 67 180
126 194 56 13 64 12 108 -21z m-2432 -33 c43 -43 44 -44 44 -111 0 -86 -16
-138 -54 -178 l-29 -32 -9 33 c-7 26 -12 31 -22 23 -9 -8 -20 -3 -42 20 -16
18 -48 40 -70 50 -35 16 -84 65 -72 73 46 31 93 77 118 116 43 67 74 68 136 6z
m-361 -179 c73 -31 83 -38 113 -87 42 -71 44 -133 4 -204 -37 -67 -55 -72 -50
-14 2 27 -3 58 -14 79 -9 19 -21 46 -27 62 -15 37 -27 34 -51 -13 -11 -22 -27
-40 -35 -40 -11 0 -15 -12 -15 -50 0 -38 -4 -52 -19 -60 -17 -9 -22 -4 -44 44
-14 30 -35 59 -46 65 -31 17 -28 57 5 65 14 4 37 18 50 31 20 21 24 34 24 90
0 46 4 65 13 65 7 0 48 -15 92 -33z m3169 -115 c-7 -63 5 -100 45 -136 27 -24
26 -32 -5 -77 -22 -33 -29 -36 -45 -26 -15 9 -23 7 -43 -12 -39 -36 -43 -28
-64 113 -4 27 -13 51 -19 54 -7 2 -26 -10 -43 -26 -23 -23 -30 -40 -30 -69 0
-49 -12 -67 -38 -59 -11 4 -23 2 -27 -4 -21 -34 -62 36 -70 120 -5 52 -3 72
12 100 l18 35 115 6 c70 4 129 12 150 22 19 8 39 16 43 16 4 1 5 -25 1 -57z
m-2710 -60 c3 -5 -3 -49 -13 -98 -10 -49 -22 -122 -26 -162 -5 -53 -11 -72
-22 -72 -27 0 -70 29 -76 51 -5 20 -11 21 -58 17 -40 -4 -55 -2 -69 12 -10 10
-24 20 -31 22 -8 3 -12 7 -9 10 3 2 46 38 95 78 50 41 109 91 132 112 41 37
66 47 77 30z m2185 -79 c55 -36 102 -71 104 -77 3 -6 2 -25 0 -43 l-5 -31 -73
5 c-42 3 -86 1 -104 -5 -29 -10 -33 -9 -41 13 -5 13 -9 32 -9 42 0 10 -2 29
-4 43 -21 121 -21 120 6 120 15 0 68 -28 126 -67z m16 -270 c35 -4 49 -11 53
-25 3 -13 14 -18 38 -18 49 0 116 -29 110 -47 -3 -8 -1 -24 5 -36 10 -17 8
-24 -10 -38 -17 -14 -23 -32 -27 -80 -3 -35 -7 -66 -10 -71 -3 -4 -32 -8 -64
-8 -70 0 -141 -25 -202 -69 -23 -17 -46 -31 -51 -31 -7 0 -4 77 6 130 10 53
19 136 20 204 2 68 5 80 22 87 26 10 51 10 110 2z m-2265 -78 c15 -16 20 -40
25 -110 4 -49 10 -108 15 -130 12 -53 12 -52 -6 -59 -9 -3 -44 14 -88 44 -72
49 -140 80 -177 80 -22 0 -22 -1 -8 73 9 52 8 60 -10 84 -12 14 -21 30 -21 36
0 6 47 8 125 5 108 -3 128 -7 145 -23z m-355 -70 c14 -13 25 -28 25 -32 0 -22
-248 -223 -274 -223 -3 0 -6 16 -6 35 0 41 63 172 93 195 75 56 124 64 162 25z
m3047 -136 c38 -40 52 -66 73 -130 27 -85 30 -105 17 -113 -4 -2 -60 46 -125
108 -101 97 -117 116 -117 143 0 71 82 66 152 -8z m-2854 -54 c41 -19 56 -32
67 -59 24 -56 20 -102 -11 -123 -14 -10 -34 -26 -44 -35 -10 -9 -36 -18 -57
-20 -41 -3 -40 -2 -27 -74 8 -43 -19 -53 -60 -23 -20 15 -31 18 -34 11 -2 -7
-13 -10 -29 -6 -54 14 -46 -42 16 -100 34 -33 30 -46 -23 -73 -46 -23 -86 -64
-86 -87 0 -12 -5 -28 -10 -36 -15 -22 -64 36 -108 130 -29 61 -36 89 -40 155
-3 72 -1 84 20 115 35 51 70 60 120 32 32 -19 42 -21 54 -11 12 10 21 9 43 -4
16 -9 31 -14 35 -10 14 14 5 53 -20 82 -17 20 -24 39 -21 51 3 11 0 33 -6 50
-13 34 -11 37 40 56 48 18 111 10 181 -21z m2574 -62 c21 -9 38 -20 38 -24 0
-5 -11 -25 -25 -45 -29 -42 -32 -76 -9 -94 13 -11 20 -8 45 23 20 24 39 37 55
37 13 0 24 -4 24 -9 0 -5 7 -16 15 -24 12 -12 23 -13 50 -6 42 12 64 2 99 -44
75 -100 58 -296 -35 -400 -33 -38 -40 -41 -58 -29 -11 6 -32 12 -46 12 -15 0
-25 6 -25 15 0 16 -76 99 -100 108 -13 5 -12 8 4 19 10 7 40 27 65 44 36 24
46 38 48 60 1 16 4 50 8 75 6 36 4 49 -10 62 -23 23 -30 22 -55 -13 -12 -16
-28 -30 -37 -30 -8 0 -29 -16 -46 -35 -40 -45 -84 -49 -89 -7 -2 18 -8 26 -18
23 -44 -10 -121 8 -152 36 -18 16 -20 26 -14 82 6 70 22 94 85 133 40 25 98
47 125 48 11 0 37 -8 58 -17z m-2238 -319 c27 -54 49 -111 49 -127 0 -34 -48
-87 -79 -87 -24 0 -34 -23 -34 -82 0 -43 -16 -50 -45 -18 -10 11 -27 20 -37
20 -27 0 -62 81 -55 127 3 18 23 60 44 91 22 32 49 86 62 121 13 36 27 61 34
58 7 -2 34 -48 61 -103z m1853 24 c6 -7 16 -30 23 -51 7 -23 39 -67 76 -107
58 -61 64 -71 64 -110 0 -49 -24 -106 -54 -125 -14 -9 -39 -11 -73 -8 -53 5
-53 6 -53 40 0 22 -8 42 -22 56 -13 13 -37 45 -55 72 -28 44 -30 51 -18 66 8
8 15 21 15 27 0 7 3 12 8 12 4 0 12 12 19 28 50 122 51 124 70 100z m-2137
-154 c0 -14 -4 -33 -10 -43 -5 -10 -14 -45 -19 -77 -9 -54 -8 -63 16 -112 38
-76 23 -86 -63 -41 -81 41 -105 71 -112 137 -7 78 31 134 104 151 70 16 84 14
84 -15z m446 -131 c15 -21 61 -70 102 -110 88 -85 91 -108 15 -97 -62 8 -141
42 -153 65 -6 10 -10 33 -10 52 0 19 -7 40 -15 47 -16 13 -12 43 7 68 16 19
23 15 54 -25z m2064 9 c63 -47 48 -135 -33 -189 -46 -31 -111 -52 -123 -40 -6
6 15 76 28 91 4 5 4 45 1 89 l-6 80 54 -6 c29 -4 65 -15 79 -25z m-566 -83
c-2 -46 -19 -106 -36 -126 -33 -41 -206 -90 -222 -64 -4 6 -3 11 3 11 5 0 13
9 16 20 3 11 13 20 20 20 8 0 56 40 107 90 51 49 98 88 103 86 6 -1 9 -18 9
-37z m-1459 -181 c14 -6 25 -14 25 -17 0 -3 -28 -22 -61 -41 -34 -19 -87 -62
-118 -95 -65 -70 -91 -134 -91 -226 0 -32 -4 -61 -10 -64 -32 -20 -98 127 -71
159 28 34 61 110 61 142 0 72 44 118 135 140 65 16 98 17 130 2z m1452 -64
c54 -7 99 -44 124 -101 13 -31 24 -43 39 -43 11 0 20 -5 20 -12 0 -6 10 -22
21 -34 18 -19 20 -30 15 -68 -12 -80 -73 -141 -97 -96 -4 8 -20 46 -36 85 -34
85 -109 164 -202 214 -105 56 -60 77 116 55z m-1162 -72 c42 -23 50 -32 53
-60 4 -36 -18 -62 -75 -88 -18 -8 -40 -25 -49 -39 -10 -15 -26 -25 -40 -25
-26 0 -39 -19 -49 -72 -8 -45 -47 -85 -62 -66 -6 7 -14 23 -17 36 -11 34 -49
28 -80 -13 -15 -19 -36 -39 -46 -45 -66 -35 -127 122 -91 233 17 51 22 50 97
-21 41 -40 58 -37 62 9 2 19 9 39 16 44 7 6 22 28 34 51 31 61 67 81 152 83
31 0 60 -8 95 -27z m230 18 c3 -5 32 -12 65 -16 48 -5 60 -10 60 -24 0 -9 5
-31 11 -49 9 -24 16 -31 33 -29 16 2 23 13 30 45 10 45 17 49 100 55 53 4 55
-12 8 -64 -21 -24 -58 -71 -81 -105 -23 -35 -44 -63 -46 -63 -2 0 -16 5 -30
12 -18 8 -31 8 -49 0 -22 -10 -26 -6 -62 56 -22 37 -58 90 -81 119 -24 29 -43
57 -43 63 0 13 77 13 85 0z m759 -68 c59 -40 94 -104 95 -173 1 -36 6 -61 16
-69 17 -14 51 -5 59 15 9 25 26 17 42 -20 25 -61 -6 -132 -79 -180 -38 -25
-69 -13 -96 36 -20 36 -27 40 -50 35 -55 -14 -55 -14 -62 44 -5 39 -13 59 -28
69 -15 10 -21 24 -21 52 0 30 -6 42 -26 56 -15 10 -38 28 -51 41 -21 19 -23
25 -12 38 11 13 9 19 -11 34 -27 21 -22 46 12 53 13 2 57 2 98 0 60 -4 83 -10
114 -31z m-259 -145 c15 -12 17 -21 10 -63 -10 -67 -11 -124 -1 -155 6 -23 4
-27 -18 -33 -26 -6 -35 -29 -16 -41 5 -3 14 -15 20 -25 9 -16 4 -22 -35 -39
-27 -12 -52 -32 -63 -50 -19 -34 -25 -36 -71 -20 -47 17 -64 57 -60 148 2 42
0 90 -5 108 -14 59 43 131 113 140 26 4 45 13 52 24 11 22 47 25 74 6z m-572
-50 c64 -45 75 -69 58 -127 -6 -20 -11 -71 -11 -111 0 -52 -5 -81 -16 -97 -21
-30 -89 -64 -122 -60 -25 3 -27 7 -27 48 0 40 -3 47 -38 69 l-37 24 20 22 c26
27 25 40 -2 60 l-23 15 23 40 c12 21 22 53 22 70 0 43 25 88 52 92 28 5 29 4
101 -45z m-450 -295 c30 -26 19 -32 -67 -32 l-84 0 5 43 c8 71 7 70 70 36 32
-18 66 -39 76 -47z m1437 -4 c0 -7 3 -23 6 -35 6 -22 4 -23 -69 -23 -42 0 -78
4 -81 8 -3 5 23 20 57 34 73 30 87 32 87 16z"/>
</g>
</svg>
