<?xml version="1.0" standalone="no"?>
<!DOCTYPE svg PUBLIC "-//W3C//DTD SVG 20010904//EN"
 "http://www.w3.org/TR/2001/REC-SVG-20010904/DTD/svg10.dtd">
<svg version="1.0" xmlns="http://www.w3.org/2000/svg"
 width="1280.000000pt" height="619.000000pt" viewBox="0 0 1280.000000 619.000000"
 preserveAspectRatio="xMidYMid meet">
<metadata>
Created by potrace 1.15, written by Peter Selinger 2001-2017
</metadata>
<g transform="translate(0.000000,619.000000) scale(0.100000,-0.100000)"
fill="#000000" stroke="none">
<path d="M2281 5734 c-11 -14 -28 -24 -38 -22 -14 2 -19 -5 -21 -36 -2 -27
-11 -45 -28 -58 -32 -26 -31 -35 14 -77 37 -35 37 -35 12 -39 -17 -3 -31 4
-45 21 -21 26 -67 53 -100 58 -40 6 -70 -12 -101 -61 -34 -52 -33 -60 0 -60
31 -1 57 -25 66 -62 4 -18 9 -39 11 -47 6 -23 -28 -24 -50 -2 -12 12 -31 21
-43 21 -12 0 -36 14 -54 31 -38 37 -66 33 -84 -12 -10 -23 -10 -39 -1 -68 6
-21 11 -50 11 -65 0 -22 4 -26 29 -26 35 0 60 -25 42 -43 -9 -9 -17 -8 -33 2
-16 10 -23 10 -26 2 -2 -6 -14 -11 -27 -11 -17 0 -26 -8 -32 -27 l-10 -28 -12
23 c-16 31 -66 31 -75 0 -9 -35 -8 -38 19 -38 27 0 33 -21 12 -39 -11 -8 -19
-5 -35 14 -26 30 -32 31 -65 5 -14 -11 -28 -16 -31 -12 -9 16 -90 11 -109 -6
-13 -12 -20 -13 -29 -4 -21 21 -42 13 -60 -22 -15 -30 -15 -36 -2 -55 8 -12
12 -25 9 -31 -3 -5 -2 -18 4 -28 7 -14 5 -21 -9 -30 -15 -9 -19 -21 -16 -54 2
-23 10 -46 17 -52 22 -18 59 -74 59 -90 0 -9 -23 -19 -70 -30 -79 -17 -174
-62 -223 -105 -45 -40 -81 -111 -106 -206 -38 -148 -71 -215 -107 -215 -20 0
-35 -25 -23 -37 14 -14 3 -33 -17 -33 -17 0 -18 -30 -2 -66 11 -23 16 -26 50
-21 21 3 38 1 38 -3 0 -4 10 -6 21 -3 21 6 22 3 17 -43 -7 -72 -34 -122 -79
-144 -29 -15 -36 -24 -32 -40 4 -14 0 -20 -12 -20 -14 0 -16 -6 -11 -35 6 -30
4 -35 -12 -35 -11 0 -31 9 -45 20 -31 25 -47 25 -48 3 -1 -10 -2 -24 -3 -31 0
-6 -17 -20 -36 -30 -19 -9 -45 -33 -58 -52 -22 -33 -23 -45 -6 -102 3 -11 -7
-22 -32 -35 -69 -34 -94 -125 -54 -202 10 -21 42 -56 70 -76 l51 -38 -41 -27
c-121 -80 -156 -259 -91 -461 44 -138 81 -223 133 -308 38 -62 43 -77 34 -96
-8 -19 -16 -22 -46 -18 -45 6 -103 -40 -93 -75 3 -14 1 -22 -7 -22 -23 0 -1
-54 36 -87 32 -28 34 -33 22 -52 -11 -18 -11 -23 1 -30 10 -7 5 -20 -23 -61
-30 -44 -36 -61 -36 -106 0 -76 29 -109 98 -109 40 0 56 5 76 24 14 14 26 34
26 46 0 23 36 59 45 45 4 -6 23 -7 44 -4 33 5 39 3 44 -15 4 -17 12 -21 44
-19 56 2 68 -8 49 -38 -9 -13 -16 -35 -16 -49 0 -28 -6 -30 -46 -15 -38 15
-52 -1 -30 -34 9 -14 16 -28 16 -31 0 -10 -39 -5 -46 6 -9 16 -57 4 -109 -27
-55 -32 -57 -50 -6 -58 21 -3 41 -13 45 -21 3 -8 14 -15 25 -15 18 0 20 -5 15
-32 -4 -18 -17 -42 -30 -53 -31 -27 -30 -31 8 -44 l31 -11 -20 -23 c-29 -31
-36 -57 -18 -63 10 -4 15 -20 15 -48 0 -50 30 -103 64 -112 29 -7 42 -1 56 27
9 16 7 21 -15 29 -34 13 -34 52 0 74 14 9 25 23 25 32 0 17 44 64 60 64 5 0
10 -15 10 -33 0 -48 18 -62 47 -35 13 12 23 17 23 11 0 -7 22 -9 64 -6 37 3
71 1 82 -5 18 -11 18 -11 -3 -12 -13 0 -23 -6 -23 -14 0 -8 -13 -17 -29 -21
-39 -8 -63 -37 -64 -77 -2 -25 2 -32 13 -29 59 16 70 14 70 -13 0 -21 5 -26
25 -26 14 0 25 -4 25 -10 0 -5 20 -18 44 -28 24 -11 55 -35 70 -54 48 -63 29
-196 -36 -255 l-24 -23 -23 31 c-45 60 -126 63 -161 6 -45 -73 -12 -172 66
-197 93 -31 212 23 320 144 30 35 68 73 84 84 32 24 149 46 164 31 15 -13 26
-11 26 5 0 24 20 29 40 11 11 -10 20 -12 24 -6 4 6 18 6 39 0 56 -16 95 2 122
58 1 1 19 -7 42 -18 27 -13 50 -18 67 -13 25 6 59 39 69 67 3 7 18 0 39 -21
45 -43 87 -55 124 -35 24 12 30 12 39 0 18 -24 55 -39 95 -36 21 2 45 -2 53
-9 11 -10 17 -9 27 3 17 21 33 19 48 -6 10 -16 17 -18 25 -10 6 6 27 11 47 11
44 0 98 -37 231 -158 99 -92 127 -107 209 -117 48 -6 60 -3 89 17 19 13 43 35
55 51 18 25 19 31 8 75 -17 63 -60 106 -106 106 -39 0 -76 -27 -76 -55 0 -30
-18 -31 -44 -2 -53 57 -67 117 -46 195 15 51 53 94 98 109 20 6 41 18 45 25 4
8 17 14 27 14 15 0 20 7 20 26 0 27 6 28 52 9 49 -20 24 79 -26 102 -17 8 -42
20 -55 28 l-24 13 35 7 c19 4 53 2 74 -4 51 -14 54 -14 54 4 0 14 3 14 25 -1
41 -27 53 -3 29 60 -9 22 19 21 39 -2 10 -10 17 -30 17 -45 0 -18 10 -34 30
-49 37 -27 38 -41 3 -66 -31 -23 -26 -48 12 -58 63 -16 104 22 113 104 2 26 9
52 14 58 5 8 1 25 -13 48 -21 36 -21 37 -3 51 18 13 18 15 3 42 -28 49 -7 103
40 103 32 0 73 19 69 32 -3 7 -28 29 -57 49 -47 33 -57 36 -89 28 -42 -9 -50
-6 -33 15 19 23 3 39 -33 33 -31 -5 -33 -3 -49 43 -9 26 -17 51 -17 55 0 4 30
5 66 2 61 -6 66 -5 71 14 4 13 11 18 21 14 8 -3 20 -1 27 5 19 16 45 1 45 -27
0 -60 57 -98 125 -83 49 11 64 27 76 80 11 49 6 71 -28 122 -21 31 -23 39 -12
56 11 17 11 25 -1 46 -7 14 -11 27 -9 29 2 2 16 11 31 20 40 25 61 61 49 84
-5 10 -16 34 -25 54 -18 41 -32 49 -81 49 -52 0 -52 30 0 114 110 176 160 330
160 486 -1 83 -4 101 -28 147 -14 28 -51 73 -81 99 l-55 48 41 21 c98 49 137
158 84 234 -15 21 -38 44 -52 52 -19 10 -24 18 -19 34 23 69 4 119 -60 156
-24 14 -35 28 -35 44 0 37 -23 48 -53 25 -14 -11 -32 -20 -41 -20 -13 0 -14 5
-6 26 11 29 6 44 -16 44 -8 0 -14 7 -14 15 0 8 -15 21 -33 29 -37 15 -69 76
-81 154 l-6 43 29 -15 c25 -14 30 -14 41 -1 7 8 21 15 31 15 19 0 59 53 59 78
0 8 -9 16 -20 19 -15 4 -17 9 -10 23 14 27 13 28 -24 44 -44 18 -54 38 -77
153 -10 52 -33 124 -50 159 -56 117 -167 202 -298 227 -65 12 -81 33 -39 52
13 6 25 19 27 30 2 11 10 24 19 31 15 11 25 101 12 109 -8 5 -6 77 3 91 4 6
-7 30 -24 54 -29 40 -31 41 -50 24 -11 -10 -19 -12 -19 -5 0 7 -13 11 -34 9
-19 -1 -40 3 -48 9 -27 22 -95 26 -123 7 -23 -15 -28 -15 -36 -3 -14 22 -11
36 11 42 24 6 26 39 4 58 -13 11 -21 11 -45 -3 -16 -10 -31 -13 -34 -7 -4 5
-16 9 -27 9 -18 0 -20 4 -14 38 4 20 7 44 6 52 0 8 -1 44 0 78 2 72 -16 102
-57 102 -18 0 -27 -8 -35 -31 -9 -26 -14 -29 -37 -25 -31 7 -47 -2 -52 -29 -5
-25 -44 -32 -53 -9 -3 9 -2 22 3 28 5 6 11 25 13 41 2 25 8 31 33 33 43 5 55
19 55 62 0 55 -23 70 -103 70 -67 0 -97 -14 -97 -46 0 -8 -7 -14 -15 -14 -12
0 -14 6 -8 28 18 66 7 103 -35 118 -1 0 3 15 9 33 9 25 8 36 -5 56 -24 36 -86
35 -115 -1z m468 -550 c6 -5 -10 -24 -22 -24 -21 0 -40 17 -32 29 6 10 41 7
54 -5z m-381 -70 c51 -43 72 -81 72 -129 l0 -35 58 0 c39 0 67 -6 89 -20 109
-66 67 -243 -61 -257 -25 -3 -52 -3 -61 1 -14 5 -14 9 1 37 13 27 14 39 5 70
-13 43 -35 59 -80 59 -30 0 -42 -9 -75 -54 -13 -19 -15 -19 -49 18 -29 31 -41
37 -68 34 -54 -5 -83 -63 -64 -130 7 -28 7 -28 -39 -28 -70 0 -119 29 -146 87
-22 48 -23 80 -1 136 19 50 112 79 172 53 14 -6 19 3 29 44 14 59 47 103 99
130 52 27 72 25 119 -16z m-528 -135 c13 -23 13 -49 0 -49 -5 0 -10 6 -10 13
0 7 -9 18 -20 25 -11 6 -17 18 -14 26 7 18 31 10 44 -15z m910 -49 c0 -10 11
-36 25 -56 14 -20 25 -51 25 -68 0 -30 -32 -96 -47 -96 -5 0 -8 42 -8 92 0 51
-4 105 -9 121 -5 18 -5 27 3 27 6 0 11 -9 11 -20z m-913 -111 l1 -90 -24 22
c-13 12 -28 37 -34 55 -10 30 -9 37 17 69 15 19 30 35 33 35 3 0 6 -41 7 -91z
m-191 -74 c27 -8 63 -26 79 -40 l30 -26 -70 7 c-38 4 -95 8 -125 9 -65 2 -77
22 -27 46 42 21 54 22 113 4z m1362 -37 c7 -7 12 -19 12 -29 0 -13 -14 -17
-67 -22 -38 -4 -84 -7 -103 -7 l-35 1 60 34 c62 36 112 44 133 23z m-1578
-127 c0 -6 -4 -12 -9 -15 -18 -12 -18 -46 0 -80 14 -27 16 -36 5 -45 -9 -7
-16 -7 -23 0 -18 18 -53 1 -53 -27 0 -19 -5 -24 -24 -24 -14 0 -39 -12 -56
-26 -30 -26 -53 -27 -32 -1 7 8 7 18 2 27 -16 25 -11 83 9 116 11 18 41 42 72
58 53 26 109 35 109 17z m435 -1 c14 -22 -13 -43 -56 -44 -37 -1 -46 -5 -56
-27 -10 -20 -23 -28 -54 -33 -33 -5 -42 -12 -51 -36 -7 -21 -17 -30 -32 -30
-30 0 -64 -26 -68 -53 -2 -15 -18 -29 -52 -46 -46 -22 -51 -22 -62 -6 -7 9
-10 22 -8 28 6 14 71 57 85 57 5 0 12 18 15 40 4 25 12 40 21 40 7 0 17 10 22
22 5 14 10 17 15 10 4 -7 18 -12 32 -12 17 0 24 5 24 20 0 12 7 20 16 20 9 0
32 14 51 30 29 26 41 30 93 30 32 0 62 -4 65 -10z m1336 -36 c72 -35 124 -77
138 -113 11 -25 10 -35 -8 -70 -12 -23 -23 -41 -25 -41 -19 0 -76 34 -73 43 2
7 0 20 -5 30 -7 14 -16 16 -42 11 -32 -5 -34 -4 -38 26 -3 21 0 34 9 37 18 7
17 54 -3 81 -19 27 -19 28 47 -4z m-347 -4 c19 -12 37 -28 40 -36 4 -10 13
-14 22 -10 11 4 15 0 14 -17 -4 -38 -1 -40 35 -18 l35 20 0 -20 c0 -12 8 -23
20 -26 14 -4 20 -14 20 -34 0 -21 6 -32 23 -38 12 -5 29 -18 38 -29 9 -11 23
-22 30 -24 11 -4 11 -10 2 -31 -11 -24 -14 -25 -45 -15 -18 6 -39 12 -45 14
-7 2 -13 16 -13 30 0 35 -26 64 -57 64 -18 0 -28 9 -38 34 -14 33 -39 51 -56
40 -16 -9 -49 7 -49 24 0 30 -15 42 -57 46 -49 5 -63 12 -63 32 0 23 101 19
144 -6z m-339 -114 c50 -15 125 -46 169 -69 91 -49 306 -221 306 -246 0 -9 16
-33 36 -52 39 -38 107 -150 118 -195 4 -16 18 -40 30 -54 12 -14 37 -61 55
-105 18 -44 46 -101 61 -126 19 -32 30 -64 33 -105 2 -32 12 -86 21 -119 49
-177 69 -512 45 -751 -27 -283 -129 -599 -276 -857 -126 -222 -328 -403 -551
-493 -206 -82 -495 -69 -697 34 -220 111 -413 316 -529 563 -126 266 -215 642
-216 902 0 148 28 428 57 557 48 219 168 508 282 682 120 183 330 357 506 419
114 40 174 48 320 45 116 -3 155 -8 230 -30z m-1284 -179 c-5 -5 -17 -7 -26
-3 -14 5 -15 9 -5 21 10 12 16 13 27 4 9 -8 10 -16 4 -22z m2151 -17 c17 0 18
-3 8 -15 -12 -15 -51 -20 -63 -9 -11 11 5 35 20 30 8 -3 24 -6 35 -6z m-2185
-107 c59 -31 73 -42 73 -61 0 -34 -18 -62 -39 -62 -30 0 -51 -33 -48 -74 1
-28 -3 -41 -16 -50 -26 -16 -34 2 -41 98 -4 44 -9 105 -12 134 -4 28 -3 52 2
52 4 0 41 -17 81 -37z m2229 -65 c-4 -29 -9 -94 -13 -145 l-6 -92 -23 16 c-19
12 -24 24 -24 59 0 38 -4 45 -30 59 -20 10 -30 23 -30 38 0 12 -3 31 -6 43 -5
18 0 22 33 28 21 3 49 15 63 26 38 30 43 25 36 -32z m-2386 -500 c0 -27 -49
-115 -79 -142 -15 -14 -34 -19 -67 -17 -38 1 -45 -2 -40 -14 11 -29 -27 -15
-59 22 -28 32 -31 41 -22 61 8 17 8 29 -1 43 -20 31 -14 39 29 39 32 0 42 -4
46 -20 6 -24 24 -25 65 -4 22 11 33 13 38 5 10 -17 35 -4 50 25 17 30 40 31
40 2z m2523 -70 c8 7 18 7 27 2 20 -13 77 -13 85 0 9 15 71 12 84 -4 9 -11 9
-16 0 -21 -6 -4 -9 -19 -6 -34 6 -29 -31 -81 -58 -81 -8 0 -15 -4 -15 -10 0
-18 -18 -10 -23 10 -3 13 -14 20 -30 20 -44 0 -107 68 -107 116 0 13 3 14 15
4 11 -9 19 -9 28 -2z m-2664 -213 c15 5 21 2 21 -10 0 -37 -143 -62 -170 -30
-14 17 -5 35 19 35 10 0 28 12 42 26 l24 25 21 -26 c16 -20 27 -25 43 -20z
m2825 -24 c10 -11 28 -22 42 -25 21 -6 23 -9 14 -26 -14 -25 -73 -27 -130 -4
-48 19 -47 36 0 45 19 4 36 12 38 18 5 16 17 13 36 -8z m-2884 -86 c0 -8 -4
-15 -10 -15 -5 0 -10 7 -10 15 0 8 5 15 10 15 6 0 10 -7 10 -15z m114 -11 c12
-30 7 -64 -9 -64 -21 0 -75 28 -75 39 0 12 42 40 61 40 9 1 20 -6 23 -15z
m2670 -37 c18 -13 17 -15 -9 -35 -34 -27 -43 -22 -37 18 5 33 18 37 46 17z
m-2872 -195 c13 -15 13 -14 -31 -37 l-34 -17 6 37 c3 20 14 49 24 64 l18 26 3
-30 c2 -16 9 -36 14 -43z m3063 -32 c21 -41 19 -53 -7 -45 -35 11 -40 19 -29
48 13 34 17 34 36 -3z m-2938 -30 c28 0 34 -3 29 -16 -4 -9 0 -27 9 -40 13
-20 13 -27 3 -44 -11 -17 -10 -26 5 -51 9 -17 17 -39 17 -50 0 -28 -28 -35
-45 -13 -13 18 -14 18 -44 -3 -17 -14 -37 -20 -46 -16 -11 4 -25 -4 -42 -23
l-24 -29 5 37 c4 32 2 37 -20 42 -44 11 -24 59 44 105 35 24 40 42 17 64 -13
13 -12 17 8 30 12 9 28 14 35 11 8 -2 29 -4 49 -4z m2788 -40 c33 0 58 -24 50
-49 -4 -13 4 -27 27 -46 57 -47 77 -105 38 -105 -23 0 -24 -3 -10 -49 13 -47
7 -49 -20 -6 -17 27 -27 34 -41 30 -10 -4 -29 1 -41 9 -32 22 -58 20 -58 -4 0
-11 -4 -20 -9 -20 -13 0 -11 81 2 98 7 9 6 17 -1 24 -15 15 -15 55 -1 64 7 4
9 21 6 40 -5 31 -4 33 13 24 10 -5 31 -10 45 -10z m-100 -380 c-6 -26 -4 -30
14 -30 13 0 21 -7 21 -17 0 -10 7 -27 15 -37 35 -46 7 -138 -84 -279 -63 -96
-93 -128 -106 -115 -3 2 6 19 19 36 15 21 22 41 18 58 -3 17 3 33 18 49 17 18
21 32 17 57 -4 26 1 39 21 61 24 25 25 30 14 59 -10 28 -9 35 10 55 19 20 20
28 11 67 -7 31 -7 48 1 56 16 16 18 12 11 -20z m-2585 -75 c13 -14 16 -25 10
-35 -17 -26 -11 -68 11 -84 19 -13 20 -18 11 -46 -14 -38 -6 -59 25 -71 20 -7
22 -12 13 -28 -16 -31 -12 -53 15 -81 22 -23 24 -29 11 -39 -13 -11 -23 -2
-65 56 -28 37 -69 102 -91 145 -34 64 -40 85 -40 137 0 50 4 63 20 73 11 7 20
17 20 22 0 5 8 15 18 22 15 11 17 9 20 -19 2 -18 12 -41 22 -52z m229 -761
c39 -53 41 -57 24 -70 -10 -7 -24 -14 -30 -14 -7 0 -13 -7 -13 -15 0 -26 -30
-16 -50 18 -30 49 -24 137 10 137 9 0 36 -25 59 -56z m2138 14 c1 -13 5 -39 8
-58 4 -26 0 -44 -17 -70 -17 -27 -23 -31 -26 -17 -2 9 -17 24 -33 32 -29 15
-29 16 -12 43 29 46 65 92 72 92 3 0 7 -10 8 -22z m-2022 -188 c17 -32 13 -50
-10 -50 -20 0 -44 38 -38 61 8 28 30 23 48 -11z m1865 -49 c0 -24 -18 -37 -32
-23 -8 8 -7 16 2 27 17 21 30 19 30 -4z m-1646 -107 c9 -8 16 -19 16 -23 0 -5
15 -12 32 -17 18 -6 34 -17 36 -27 5 -23 -24 -22 -37 1 -8 14 -13 15 -31 4
-19 -12 -22 -10 -35 22 -24 56 -15 74 19 40z m1419 -42 c-5 -22 -49 -49 -60
-38 -3 3 7 21 23 41 28 38 48 36 37 -3z m-685 -214 c4 -21 -34 -34 -54 -17
-11 9 -12 15 -2 26 15 18 52 13 56 -9z m-222 -41 c13 -13 -8 -44 -39 -58 -20
-9 -33 -22 -35 -36 -4 -27 -3 -26 -37 -13 -22 8 -25 13 -16 24 9 11 7 18 -11
30 -12 9 -33 16 -45 16 -47 0 -15 27 52 44 25 6 123 1 131 -7z m533 -8 c39
-14 39 -23 0 -39 -17 -7 -35 -24 -40 -37 -10 -28 -39 -30 -46 -3 -3 12 -18 23
-37 28 -24 6 -32 14 -34 35 -3 27 -3 27 61 27 35 0 78 -5 96 -11z"/>
<path d="M10720 5578 c-16 -17 -32 -44 -35 -60 -4 -18 -13 -28 -25 -28 -22 0
-43 -48 -35 -81 5 -19 0 -29 -23 -46 l-29 -22 -48 25 c-56 28 -92 30 -161 9
-77 -23 -149 -98 -114 -120 12 -7 14 -45 3 -45 -53 -2 -161 -23 -206 -40 -86
-32 -170 -127 -240 -271 -75 -157 -110 -252 -148 -407 -36 -148 -54 -183 -117
-225 -60 -40 -109 -45 -161 -17 -49 28 -71 17 -71 -36 0 -32 -2 -34 -35 -34
-44 0 -90 -23 -106 -51 -8 -16 -13 -18 -19 -9 -4 6 -18 10 -31 8 -20 -2 -24
-9 -27 -44 -3 -35 4 -52 48 -117 28 -43 56 -77 61 -77 18 0 8 -31 -26 -79 -99
-137 -109 -265 -44 -541 23 -96 44 -210 47 -253 4 -71 3 -80 -18 -102 -15 -16
-39 -27 -69 -31 -73 -10 -87 -34 -56 -95 15 -29 15 -30 -26 -69 l-41 -39 4
-64 c6 -99 55 -151 176 -187 23 -7 42 -14 42 -15 0 -13 -34 -93 -44 -105 -19
-21 -45 -115 -52 -189 -15 -142 62 -308 164 -353 26 -12 77 -23 114 -26 38 -3
68 -8 68 -13 0 -4 -14 -30 -31 -57 -23 -38 -31 -63 -32 -102 -2 -49 0 -54 38
-86 37 -33 40 -39 46 -107 11 -108 36 -156 137 -256 110 -111 152 -128 327
-139 139 -9 166 -22 216 -100 40 -63 39 -113 -1 -159 -16 -18 -30 -37 -30 -42
0 -18 30 -31 79 -34 46 -3 54 -7 71 -35 24 -39 70 -69 121 -77 52 -9 116 21
179 85 43 44 50 48 50 28 0 -12 -12 -39 -26 -59 -33 -48 -37 -102 -9 -107 11
-2 41 -24 67 -48 66 -62 116 -57 164 16 21 31 33 40 56 40 37 0 45 22 24 66
-17 37 -21 89 -7 98 5 3 20 -11 35 -32 42 -60 127 -99 194 -87 49 8 112 64
112 100 0 25 1 25 24 10 22 -14 25 -14 40 0 12 13 20 14 37 5 17 -10 25 -9 37
4 15 14 14 18 -6 43 -12 16 -30 42 -39 60 -15 30 -15 35 1 72 10 21 40 60 67
87 l49 48 125 7 c197 12 221 21 345 129 97 86 139 162 147 265 5 58 9 67 34
82 57 34 64 106 20 200 -16 34 -27 64 -24 67 4 3 30 6 58 6 110 0 190 54 248
165 25 49 31 76 35 142 5 100 -6 151 -60 265 -22 48 -38 94 -35 102 4 10 18
16 37 16 35 0 97 29 121 56 26 30 59 101 59 128 0 37 -15 70 -51 110 -32 37
-32 37 -16 72 29 60 26 64 -53 79 -19 4 -43 9 -53 11 -23 7 -47 55 -47 96 0
44 33 211 66 328 16 60 28 132 31 195 5 90 3 108 -21 175 -15 41 -39 92 -54
113 -62 89 -61 78 -9 138 60 68 97 142 97 191 0 35 -2 38 -29 38 -17 0 -33 -5
-37 -11 -4 -7 -21 3 -45 27 -28 28 -47 38 -76 39 -20 2 -38 7 -39 11 -1 5 -5
21 -8 37 -8 34 -20 34 -58 2 -23 -19 -41 -25 -79 -25 -61 0 -98 18 -136 67
-44 56 -49 68 -97 238 -81 281 -144 419 -236 515 -68 71 -156 116 -257 132
-37 6 -71 16 -75 22 -14 20 -9 66 7 66 26 0 16 37 -17 66 -78 65 -170 80 -248
39 -27 -14 -33 -14 -52 0 -13 8 -31 15 -41 15 -17 0 -18 5 -13 36 8 39 -13 84
-38 84 -8 0 -17 15 -20 35 -7 34 -46 75 -73 75 -8 0 -27 -14 -43 -32z m-183
-333 c49 -51 60 -74 98 -206 15 -52 32 -99 37 -106 10 -12 6 -38 -13 -115 -8
-31 -14 -38 -35 -38 -19 0 -28 8 -40 35 -11 26 -20 35 -39 35 -21 0 -24 6 -30
48 -3 26 -10 65 -16 86 -15 55 -84 160 -114 174 -38 17 -31 66 10 73 11 3 21
13 24 24 9 52 63 47 118 -10z m565 20 c6 -14 19 -25 30 -25 14 0 18 -8 18 -38
0 -35 -5 -41 -52 -72 -72 -49 -113 -127 -113 -219 0 -64 -1 -67 -38 -100 -49
-44 -64 -36 -95 51 l-23 65 29 29 c24 24 30 41 35 94 7 72 65 200 101 226 11
8 38 14 58 14 31 0 41 -5 50 -25z m-794 -131 c20 -6 22 -11 16 -42 -5 -27 -3
-38 10 -47 36 -27 103 -185 78 -185 -5 0 -12 9 -15 19 -8 32 -66 61 -121 61
-43 0 -53 -4 -87 -39 -22 -21 -39 -47 -39 -58 0 -22 -75 -63 -116 -63 -113 0
-160 133 -80 226 l32 37 17 -27 c23 -35 64 -36 77 -1 5 14 15 25 22 25 7 0 22
17 33 37 11 21 31 43 45 50 27 13 90 17 128 7z m1034 -35 c9 -5 20 -25 24 -44
4 -24 12 -35 24 -35 11 0 20 -10 24 -30 4 -21 11 -30 26 -30 26 0 60 34 60 60
0 32 16 23 49 -28 67 -105 21 -222 -86 -222 -60 0 -110 28 -124 68 -16 47 -66
82 -118 82 -51 0 -77 -13 -113 -54 l-27 -31 -1 31 c0 18 12 49 30 75 16 24 30
49 30 55 0 7 9 14 20 17 29 7 35 34 14 58 -21 23 -12 36 31 42 38 5 114 -3
137 -14z m-818 -331 c10 -39 7 -46 -26 -57 -43 -15 -53 -2 -34 43 17 42 50 49
60 14z m516 -40 c0 -12 -28 -10 -35 2 -4 6 -4 19 0 28 6 16 8 15 21 -2 8 -11
14 -23 14 -28z m-851 -2 c15 -14 44 -31 66 -38 32 -10 41 -18 43 -40 3 -23 -5
-32 -55 -64 -32 -20 -82 -56 -111 -80 -30 -24 -57 -44 -62 -44 -4 0 -18 16
-31 35 -17 26 -36 39 -66 48 -33 8 -43 16 -43 32 0 11 -14 40 -30 64 -48 71
-55 126 -10 81 16 -16 25 -19 34 -11 10 8 28 4 71 -15 64 -29 81 -26 134 27
33 34 30 33 60 5z m1174 -18 c13 -13 26 -31 30 -40 9 -24 60 -23 116 2 24 11
53 20 66 20 12 0 28 7 35 15 7 8 16 15 21 15 17 0 8 -30 -26 -87 -19 -32 -35
-64 -35 -71 0 -12 -104 -67 -125 -65 -5 0 -59 35 -119 79 -106 77 -108 78 -79
86 16 4 42 21 58 38 16 16 30 30 31 30 2 0 14 -10 27 -22z m-373 -178 c127
-36 277 -135 412 -272 32 -32 97 -118 146 -192 71 -106 99 -160 139 -267 28
-74 57 -163 63 -199 7 -36 20 -85 31 -110 10 -25 30 -130 45 -235 25 -174 26
-206 20 -390 -7 -237 -22 -342 -77 -558 -113 -441 -354 -810 -640 -980 -231
-136 -511 -153 -729 -42 -110 56 -270 197 -361 318 -206 275 -310 611 -345
1117 -29 436 7 736 126 1035 142 356 386 632 660 745 151 62 353 74 510 30z
m-1175 -71 c11 -17 28 -35 38 -40 14 -8 19 -5 27 16 10 27 11 27 68 10 9 -3
25 -17 35 -30 l18 -25 -73 -85 c-40 -47 -76 -85 -79 -85 -4 0 -16 8 -28 18
-19 15 -22 32 -29 135 -4 64 -5 117 -2 117 3 0 14 -14 25 -31z m1897 -122 c-2
-67 -6 -126 -9 -130 -2 -4 -21 14 -41 40 -20 26 -58 74 -84 106 -27 32 -46 62
-43 67 3 4 21 11 42 15 31 6 39 3 53 -16 l17 -22 29 36 c15 20 31 34 34 31 3
-3 3 -60 2 -127z m-2007 -34 c-11 -89 -33 -191 -49 -221 -40 -75 -144 -141
-237 -149 -39 -4 -68 -1 -83 7 -32 17 -68 81 -56 100 6 8 10 25 10 36 0 30 20
35 110 28 49 -4 90 -2 113 5 49 17 108 84 151 175 20 42 39 76 42 76 3 0 2
-26 -1 -57z m2147 -47 c11 -22 40 -65 64 -97 40 -50 51 -58 89 -64 24 -3 82
-3 127 1 77 6 84 5 85 -12 1 -11 5 -32 9 -47 5 -23 1 -34 -22 -58 -108 -113
-322 -5 -375 189 -21 74 -26 197 -7 152 6 -14 20 -43 30 -64z m-2172 -334 c0
-5 -16 -39 -35 -77 -31 -63 -81 -204 -120 -347 -18 -65 -36 -74 -55 -28 -21
51 -89 70 -110 30 -14 -26 -5 -40 26 -40 29 0 31 -11 5 -27 -11 -7 -21 -23
-23 -35 -3 -21 -8 -23 -55 -23 -44 1 -58 6 -84 30 -46 43 -83 131 -70 164 6
14 11 40 13 56 2 19 8 29 17 27 7 -2 22 5 33 14 18 17 19 17 34 -4 28 -40 47
-53 73 -50 36 4 38 34 6 77 -19 26 -22 37 -12 43 6 4 12 27 12 50 l0 43 55 2
c78 4 148 27 205 68 47 33 85 45 85 27z m2300 -67 c38 -20 76 -29 124 -33 l68
-5 -6 -50 c-3 -30 -1 -56 5 -63 8 -10 5 -20 -10 -40 -24 -30 -27 -54 -9 -72
22 -22 56 -13 84 22 26 32 29 33 50 19 13 -8 27 -14 31 -13 4 0 10 -16 13 -37
3 -21 9 -43 13 -49 8 -14 -16 -74 -49 -123 -13 -20 -24 -44 -24 -54 0 -23 -30
-34 -81 -29 -32 3 -42 9 -50 29 -13 36 -11 64 7 85 14 14 14 21 4 32 -29 36
-92 25 -112 -19 -6 -14 -16 -24 -21 -22 -5 1 -27 70 -48 152 -21 83 -54 190
-73 240 -20 49 -36 94 -36 99 0 4 15 -3 33 -16 17 -14 57 -38 87 -53z m-2496
-523 c2 -4 -6 -77 -18 -162 -20 -135 -25 -155 -41 -155 -10 0 -23 9 -29 20 -6
11 -24 42 -40 69 -18 29 -26 51 -20 53 6 2 19 10 29 17 24 18 14 41 -30 67
-40 24 -38 39 6 39 33 0 79 20 98 44 14 17 37 21 45 8z m2598 -43 c26 -21 54
-33 84 -37 24 -2 44 -7 44 -11 0 -3 -18 -14 -40 -23 -51 -21 -61 -45 -29 -70
l23 -20 -22 -36 c-54 -89 -67 -122 -54 -142 13 -21 1 -36 -22 -27 -9 4 -15 46
-19 154 -4 81 -10 169 -13 196 -4 26 -3 47 1 47 4 0 25 -14 47 -31z m-2717
-374 c20 -51 15 -100 -16 -139 -21 -27 -74 -42 -108 -31 -24 7 -29 35 -6 35
21 0 34 30 41 96 8 81 9 84 43 84 26 0 32 -6 46 -45z m2854 -7 c2 -97 22 -144
67 -152 35 -7 47 -25 17 -25 -10 0 -36 -3 -58 -6 -38 -7 -41 -5 -52 24 -6 18
-22 35 -37 41 -30 11 -34 44 -14 110 11 36 34 55 69 59 4 1 7 -22 8 -51z
m-135 -17 c3 -4 -1 -17 -9 -27 -14 -18 -14 -18 -15 9 0 26 13 36 24 18z
m-2935 -142 c-19 -12 -24 -2 -8 17 9 11 14 13 17 4 3 -7 -2 -16 -9 -21z m3211
-4 c10 -12 10 -15 -4 -15 -9 0 -16 7 -16 15 0 8 2 15 4 15 2 0 9 -7 16 -15z
m-3145 -76 c27 -16 45 -20 75 -15 49 8 55 -2 27 -42 -26 -37 -100 -72 -152
-72 -40 0 -95 24 -95 42 0 32 25 75 54 89 43 22 50 22 91 -2z m3196 -73 c16
-27 17 -32 4 -45 -22 -22 -125 -27 -162 -7 -32 16 -93 72 -93 85 0 4 25 6 55
3 43 -3 61 0 87 16 l32 21 29 -21 c16 -11 37 -35 48 -52z m-2939 -66 c3 -47
11 -105 17 -130 5 -24 8 -47 5 -50 -3 -2 -22 5 -42 17 -35 20 -37 24 -34 63 2
24 -1 45 -6 49 -18 11 -17 55 3 98 32 68 49 53 57 -47z m2636 -2 c31 -48 42
-88 23 -88 -5 0 -12 8 -16 18 -6 16 -7 16 -17 -2 -6 -10 -8 -33 -5 -52 5 -30
2 -35 -29 -55 -19 -12 -38 -19 -41 -16 -3 3 2 62 11 131 9 69 16 131 17 138 0
7 5 5 12 -6 7 -10 27 -41 45 -68z m-2803 -217 c6 -29 39 -71 55 -71 5 0 14 9
20 20 8 15 15 18 28 11 9 -5 38 -12 63 -16 45 -7 47 -9 58 -48 25 -97 22 -102
-51 -101 -48 0 -74 7 -108 26 -25 13 -44 29 -43 34 1 5 -7 24 -18 41 -22 36
-40 151 -21 139 6 -3 13 -19 17 -35z m2906 -110 c-12 -16 -21 -38 -21 -49 0
-14 -10 -24 -35 -32 -19 -6 -36 -19 -39 -28 -5 -14 -19 -17 -84 -17 l-79 0 23
84 c13 46 25 85 27 87 2 2 18 -1 36 -7 25 -9 36 -8 55 4 22 15 24 14 43 -11
19 -26 20 -26 46 -10 14 10 29 32 34 50 l8 33 3 -38 c2 -26 -3 -46 -17 -66z
m-2954 -118 c13 -9 47 -20 74 -24 76 -12 221 -89 168 -89 -8 0 -10 -14 -6 -40
5 -37 2 -43 -31 -71 -34 -28 -41 -30 -91 -24 -30 3 -68 14 -85 25 -47 29 -103
91 -121 132 -14 35 -20 90 -11 99 12 11 82 6 103 -8z m3051 -15 c8 -8 15 -8
27 2 23 19 28 7 15 -41 -15 -57 -70 -140 -112 -173 -84 -64 -205 -37 -213 47
-2 20 -6 41 -9 46 -14 22 103 82 165 85 29 1 56 10 75 24 34 25 36 26 52 10z
m-445 -300 c-9 -18 -19 -51 -22 -73 -5 -34 -12 -43 -44 -59 -21 -10 -41 -16
-44 -13 -2 3 21 52 52 108 45 80 60 98 67 86 6 -11 3 -27 -9 -49z m-2153 -48
c11 -21 20 -48 20 -60 0 -17 -4 -19 -27 -14 -57 14 -65 23 -58 62 6 34 19 51
37 52 4 0 17 -18 28 -40z m-170 -5 c0 -8 -7 -29 -14 -47 -8 -18 -18 -54 -21
-80 -7 -53 -10 -55 -43 -32 -37 26 -30 76 19 129 43 47 59 55 59 30z m2520
-120 c0 -21 -9 -40 -25 -55 -14 -13 -26 -22 -28 -19 -2 2 -11 38 -19 79 -9 41
-19 86 -23 100 -6 21 1 17 44 -25 40 -38 51 -56 51 -80z m-2412 -79 c47 -33
51 -32 63 2 6 17 21 32 41 40 28 10 35 9 55 -10 13 -12 23 -33 23 -49 0 -22
-6 -29 -29 -34 -16 -3 -39 -17 -51 -31 -37 -39 -70 -32 -134 29 -61 57 -86
117 -72 172 7 29 8 28 37 -31 19 -41 41 -70 67 -88z m2301 46 c-23 -93 -61
-131 -153 -152 -44 -10 -50 -9 -63 10 -10 13 -25 20 -49 20 -36 0 -41 6 -21
31 56 71 55 71 87 64 28 -6 31 -10 25 -36 -6 -25 -4 -29 15 -29 64 0 128 67
145 150 7 33 8 34 16 12 6 -14 4 -42 -2 -70z m-2081 -244 c17 -17 15 -89 -3
-115 -9 -13 -38 -29 -67 -38 -50 -14 -53 -14 -107 11 -56 25 -104 64 -123 97
-14 27 16 45 66 40 23 -3 52 0 66 6 35 14 153 14 168 -1z m1977 -22 c89 -1 92
-40 8 -96 -74 -50 -149 -53 -207 -7 -27 22 -28 26 -22 72 l8 48 81 -9 c45 -4
105 -8 132 -8z m-345 -57 c0 -60 27 -107 84 -148 38 -27 46 -37 32 -39 -60
-12 -132 31 -166 99 -27 52 -25 79 8 106 37 31 42 29 42 -18z m-1447 -69 c-16
-38 -48 -76 -76 -92 -19 -10 -137 -22 -137 -13 0 2 15 12 33 21 40 21 85 61
102 94 11 21 21 25 53 25 l39 0 -14 -35z m169 -37 c35 -20 65 -38 66 -39 2 -1
1 -12 -3 -23 -6 -19 -14 -21 -101 -21 -52 0 -94 4 -94 8 0 5 9 17 20 27 12 11
20 28 18 39 -3 23 8 46 22 46 5 0 37 -17 72 -37z m1140 -6 c-2 -17 3 -36 14
-48 17 -19 16 -19 -47 -19 -71 0 -111 8 -107 21 5 15 112 79 128 76 10 -2 14
-11 12 -30z m-1054 -154 c23 -20 38 -88 22 -98 -5 -3 -10 -17 -10 -30 0 -12
-6 -25 -14 -28 -16 -7 -66 42 -66 65 0 16 -40 56 -90 90 -24 17 -23 17 56 17
64 1 86 -3 102 -16z m1029 9 c9 -5 1 -12 -22 -21 -34 -12 -75 -56 -75 -83 -1
-7 -13 -28 -28 -45 l-28 -33 -22 45 c-15 31 -20 54 -15 77 10 57 28 68 107 68
39 0 77 -4 83 -8z m-877 -158 c0 -37 -7 -41 -35 -20 -18 13 -18 14 1 38 24 32
34 27 34 -18z"/>
<path d="M6426 5410 c-22 -17 -45 -30 -52 -30 -7 0 -28 -18 -45 -40 -18 -22
-38 -40 -45 -40 -20 0 -53 -49 -59 -89 -3 -20 -13 -51 -21 -69 -22 -50 -18
-69 38 -184 28 -59 49 -111 45 -114 -3 -3 -35 6 -72 21 -137 54 -227 45 -378
-42 -77 -45 -115 -75 -169 -134 -50 -55 -75 -75 -88 -72 -10 3 -21 0 -24 -6
-4 -6 -18 -8 -32 -5 -29 7 -54 -10 -54 -38 0 -11 -7 -35 -16 -54 -9 -19 -14
-49 -12 -68 3 -24 -1 -37 -14 -45 -11 -7 -20 -29 -24 -61 -7 -53 -14 -60 -34
-35 -7 9 -20 14 -29 12 -9 -2 -37 7 -63 20 -57 28 -78 29 -78 5 0 -27 46 -154
71 -197 l22 -37 -30 6 c-17 4 -34 3 -37 -2 -3 -6 -24 -8 -45 -5 -32 4 -41 2
-50 -15 -9 -17 -17 -19 -52 -15 -42 6 -42 6 -36 -23 3 -16 9 -37 12 -46 5 -13
-1 -18 -32 -23 -139 -24 -219 -79 -273 -189 -46 -93 -49 -158 -15 -295 29
-117 26 -141 -16 -141 -21 0 -26 -7 -57 -80 -36 -86 -41 -106 -32 -146 7 -30
5 -40 -8 -50 -15 -11 -13 -18 15 -80 18 -40 35 -96 39 -131 l7 -63 -47 0 c-59
0 -76 -26 -53 -82 8 -19 13 -46 10 -60 -3 -14 5 -55 16 -92 14 -45 24 -118 31
-224 14 -234 49 -338 148 -450 93 -104 97 -110 81 -130 -8 -9 -23 -32 -33 -51
-18 -33 -18 -35 -1 -48 11 -7 28 -13 39 -13 12 -1 39 -9 61 -20 22 -11 48 -19
57 -20 9 0 20 -5 23 -10 3 -6 19 -10 35 -10 30 0 48 -14 31 -25 -6 -3 -10 -18
-9 -33 0 -15 -5 -42 -13 -60 -13 -32 -13 -35 14 -58 33 -28 63 -31 96 -8 17
13 28 14 45 6 19 -8 28 -6 52 14 36 29 40 29 47 3 4 -13 -5 -41 -23 -73 -23
-40 -29 -64 -29 -111 0 -33 2 -68 5 -77 6 -21 34 -24 52 -6 10 10 21 3 53 -35
26 -30 49 -47 63 -47 14 0 28 -10 37 -26 12 -23 12 -27 -6 -40 -10 -8 -26 -14
-36 -14 -28 0 -42 -27 -36 -67 6 -32 2 -41 -30 -76 -33 -37 -35 -43 -31 -89 6
-58 34 -93 90 -110 34 -10 42 -9 66 9 42 31 50 67 24 102 -20 27 -20 30 -4 44
36 32 66 36 169 21 54 -8 125 -21 158 -29 89 -22 252 -20 316 4 l51 20 24 -28
c15 -19 40 -32 78 -41 49 -11 59 -11 101 6 25 11 55 27 66 38 20 18 22 18 87
-4 37 -12 110 -26 164 -32 83 -8 112 -6 209 11 134 25 197 26 245 6 33 -13 36
-18 29 -42 -19 -79 -18 -89 13 -112 41 -29 65 -27 107 10 30 27 35 37 35 76 0
39 -5 50 -35 79 -19 18 -35 35 -35 38 0 3 11 16 25 30 36 36 32 59 -16 90 -36
24 -40 31 -34 54 6 27 50 71 71 72 24 0 61 41 72 78 11 37 14 39 49 38 l38 -1
6 62 c8 85 20 97 86 89 49 -6 53 -5 57 16 3 13 8 37 11 53 4 17 7 42 7 56 1
25 4 27 60 32 33 3 67 12 77 21 10 9 25 16 35 16 49 0 75 52 41 80 -9 7 -14
19 -11 25 2 7 0 17 -5 22 -6 6 21 29 71 62 72 47 160 135 189 190 28 51 65
216 88 391 25 189 35 265 49 343 7 44 -7 67 -43 67 -35 0 -38 24 -8 77 22 40
24 51 14 69 -10 19 -8 27 10 53 31 44 65 207 54 262 -7 37 -15 47 -53 69 -58
34 -62 61 -20 152 31 66 32 75 28 161 -5 107 -25 154 -93 222 -49 50 -102 79
-160 89 -73 13 -76 15 -73 49 4 37 -25 57 -84 57 -26 0 -38 5 -38 14 0 15 -21
26 -51 26 -24 0 -24 7 1 48 11 18 19 46 18 61 -1 16 4 36 11 45 8 9 15 31 17
49 1 18 4 43 6 56 3 21 -3 27 -37 37 -39 11 -41 10 -85 -30 l-45 -41 -3 34
c-2 23 -9 35 -23 38 -22 6 -23 10 -4 43 20 35 18 50 -5 50 -18 0 -20 7 -20 63
0 34 -4 68 -9 75 -12 19 -118 6 -131 -17 -12 -18 -5 -25 -71 79 -87 136 -293
251 -451 251 -75 0 -134 -13 -191 -43 -63 -32 -63 -29 8 130 30 68 36 91 31
125 -3 23 -7 63 -10 88 -4 45 -30 99 -47 99 -5 0 -16 18 -25 40 -16 41 -39 60
-69 60 -8 0 -29 16 -46 35 -40 45 -78 46 -133 5z m607 -644 c79 -19 158 -75
213 -151 43 -61 74 -122 74 -146 0 -7 -10 -9 -30 -5 -17 3 -30 1 -30 -4 0 -6
-8 -10 -18 -10 -10 0 -27 -6 -37 -14 -16 -12 -17 -18 -7 -40 6 -14 29 -37 52
-51 24 -15 40 -33 40 -44 0 -11 14 -29 30 -41 38 -27 60 -69 60 -115 0 -29 -4
-35 -20 -35 -12 0 -34 10 -51 22 l-29 22 -27 -26 -26 -27 -50 27 -50 26 -21
-25 c-12 -14 -40 -31 -63 -37 -55 -16 -60 -27 -24 -48 19 -11 31 -27 33 -43 2
-17 8 -25 18 -22 8 2 31 8 51 14 58 16 119 -10 133 -58 9 -33 -9 -48 -71 -56
-61 -9 -89 -2 -128 34 -35 33 -139 109 -178 131 -20 11 -36 27 -35 35 2 8 25
20 51 27 93 24 176 100 202 186 25 84 20 151 -16 219 -39 73 -52 84 -136 118
-68 28 -68 28 -67 67 1 28 9 44 28 61 31 27 49 28 129 9z m-1003 -9 c42 -21
37 -50 -14 -74 -117 -57 -163 -141 -153 -277 3 -39 11 -88 17 -110 15 -50 91
-131 152 -162 72 -37 72 -44 -5 -84 -88 -45 -95 -50 -143 -94 -27 -23 -58 -48
-69 -54 -28 -14 -85 -1 -101 24 -20 29 5 61 54 69 71 12 82 15 82 29 0 8 14
19 30 25 36 12 38 26 8 42 -13 7 -27 18 -31 25 -10 18 -49 18 -94 -1 -19 -8
-39 -15 -44 -15 -4 0 -9 21 -11 48 -3 43 -5 47 -27 44 -14 -1 -32 -9 -41 -17
-9 -8 -22 -15 -28 -15 -20 0 15 91 49 126 18 19 28 34 21 34 -25 0 -10 30 38
76 40 39 47 50 39 66 -5 10 -15 18 -22 18 -7 1 -25 12 -42 25 l-30 25 25 46
c32 59 97 117 180 160 69 35 119 42 160 21z m293 -32 c8 -8 25 -30 36 -49 20
-32 21 -43 15 -138 -5 -78 -11 -109 -25 -127 -11 -13 -19 -32 -19 -42 0 -14
-7 -19 -29 -19 -16 0 -34 6 -40 14 -6 7 -31 14 -56 14 -53 1 -56 -8 -24 -71
37 -72 41 -95 16 -112 -12 -8 -42 -15 -68 -15 -86 0 -143 62 -156 167 -5 44
-2 53 18 71 12 12 30 22 40 22 9 0 22 6 29 14 6 8 21 16 33 18 17 2 23 11 25
35 3 27 9 34 48 49 46 18 54 36 34 75 -15 27 13 76 53 93 42 19 53 19 70 1z
m413 -52 c29 -68 34 -104 18 -135 -14 -28 -11 -68 5 -68 4 0 34 9 67 20 71 25
85 21 82 -22 -3 -28 2 -34 31 -48 60 -30 80 -120 38 -181 -25 -37 -90 -68
-146 -68 -31 -1 -33 1 -27 27 15 60 29 143 24 147 -3 3 -33 -9 -67 -27 -71
-36 -94 -32 -99 20 -2 22 -9 32 -27 36 -34 9 -58 59 -50 104 3 21 6 60 6 87 0
95 32 145 90 145 35 0 40 -4 55 -37z m-231 -303 c12 -47 36 -108 53 -136 18
-28 32 -56 32 -63 0 -16 -222 -15 -238 1 -8 8 -3 26 22 72 19 34 40 88 47 121
16 76 26 97 47 93 11 -2 22 -29 37 -88z m-1100 -409 c70 -32 77 -47 78 -163 2
-108 -10 -152 -32 -127 -7 8 -30 43 -53 78 -25 39 -70 87 -115 124 -40 33 -73
63 -73 68 0 4 10 15 22 23 31 22 123 20 173 -3z m2310 -60 c45 -26 42 -43 -10
-65 -53 -21 -127 -85 -181 -156 -55 -72 -68 -68 -60 23 16 181 129 270 251
198z m-2573 -19 c9 -9 9 -15 0 -24 -7 -7 -12 -20 -12 -29 0 -9 -7 -19 -15 -23
-21 -8 -19 -21 11 -66 32 -47 21 -70 -31 -70 -18 0 -46 -7 -61 -15 -16 -8 -40
-15 -53 -15 -20 0 -22 3 -16 23 12 37 11 72 -2 70 -7 -2 -37 -6 -67 -9 -66 -8
-76 4 -57 66 15 50 89 107 146 112 58 4 143 -6 157 -20z m1434 -7 c118 -21
171 -47 279 -139 138 -116 209 -210 284 -373 35 -77 44 -110 56 -209 17 -137
19 -398 5 -529 -17 -150 -109 -388 -196 -506 -52 -71 -192 -199 -265 -242 -75
-44 -136 -63 -237 -75 -72 -8 -74 -8 -83 15 -5 13 -13 23 -19 23 -5 0 -10 8
-10 19 0 10 -7 24 -16 32 -20 17 -34 -2 -34 -48 0 -17 -4 -34 -8 -37 -16 -10
-158 25 -217 54 -33 16 -94 61 -138 101 -146 135 -217 269 -308 589 -28 102
-41 485 -16 523 8 12 22 58 31 100 20 97 91 265 151 359 83 127 179 212 345
306 91 51 235 65 396 37z m-889 -57 c19 -15 16 -45 -5 -60 -10 -7 -44 -52 -76
-100 -66 -102 -91 -114 -80 -40 11 80 44 173 70 199 26 26 61 26 91 1z m2373
-43 c59 -41 79 -74 86 -143 6 -56 5 -61 -19 -77 -27 -18 -51 -12 -77 19 -23
29 -32 17 -28 -36 l3 -53 -34 2 c-23 1 -44 12 -70 37 -20 20 -42 36 -49 36
-13 0 -25 25 -36 77 -7 29 -5 32 23 38 34 7 39 20 17 44 -16 19 -28 76 -18 86
4 4 42 5 84 3 64 -4 84 -9 118 -33z m-698 -34 c32 -29 33 -32 36 -124 4 -93
-8 -145 -28 -132 -6 4 -22 32 -36 63 -14 31 -43 83 -65 114 -46 68 -48 83 -11
96 46 17 70 13 104 -17z m376 -122 c35 -26 42 -36 42 -65 0 -18 9 -57 20 -86
11 -29 20 -58 20 -65 0 -14 -47 -37 -106 -52 -50 -13 -65 -30 -73 -78 -3 -20
-11 -38 -17 -40 -21 -7 -72 47 -100 103 -23 47 -26 62 -20 110 11 93 67 180
126 194 56 13 64 12 108 -21z m-2432 -33 c43 -43 44 -44 44 -111 0 -86 -16
-138 -54 -178 l-29 -32 -9 33 c-7 26 -12 31 -22 23 -9 -8 -20 -3 -42 20 -16
18 -48 40 -70 50 -35 16 -84 65 -72 73 46 31 93 77 118 116 43 67 74 68 136 6z
m-361 -179 c73 -31 83 -38 113 -87 42 -71 44 -133 4 -204 -37 -67 -55 -72 -50
-14 2 27 -3 58 -14 79 -9 19 -21 46 -27 62 -15 37 -27 34 -51 -13 -11 -22 -27
-40 -35 -40 -11 0 -15 -12 -15 -50 0 -38 -4 -52 -19 -60 -17 -9 -22 -4 -44 44
-14 30 -35 59 -46 65 -31 17 -28 57 5 65 14 4 37 18 50 31 20 21 24 34 24 90
0 46 4 65 13 65 7 0 48 -15 92 -33z m3169 -115 c-7 -63 5 -100 45 -136 27 -24
26 -32 -5 -77 -22 -33 -29 -36 -45 -26 -15 9 -23 7 -43 -12 -39 -36 -43 -28
-64 113 -4 27 -13 51 -19 54 -7 2 -26 -10 -43 -26 -23 -23 -30 -40 -30 -69 0
-49 -12 -67 -38 -59 -11 4 -23 2 -27 -4 -21 -34 -62 36 -70 120 -5 52 -3 72
12 100 l18 35 115 6 c70 4 129 12 150 22 19 8 39 16 43 16 4 1 5 -25 1 -57z
m-2710 -60 c3 -5 -3 -49 -13 -98 -10 -49 -22 -122 -26 -162 -5 -53 -11 -72
-22 -72 -27 0 -70 29 -76 51 -5 20 -11 21 -58 17 -40 -4 -55 -2 -69 12 -10 10
-24 20 -31 22 -8 3 -12 7 -9 10 3 2 46 38 95 78 50 41 109 91 132 112 41 37
66 47 77 30z m2185 -79 c55 -36 102 -71 104 -77 3 -6 2 -25 0 -43 l-5 -31 -73
5 c-42 3 -86 1 -104 -5 -29 -10 -33 -9 -41 13 -5 13 -9 32 -9 42 0 10 -2 29
-4 43 -21 121 -21 120 6 120 15 0 68 -28 126 -67z m16 -270 c35 -4 49 -11 53
-25 3 -13 14 -18 38 -18 49 0 116 -29 110 -47 -3 -8 -1 -24 5 -36 10 -17 8
-24 -10 -38 -17 -14 -23 -32 -27 -80 -3 -35 -7 -66 -10 -71 -3 -4 -32 -8 -64
-8 -70 0 -141 -25 -202 -69 -23 -17 -46 -31 -51 -31 -7 0 -4 77 6 130 10 53
19 136 20 204 2 68 5 80 22 87 26 10 51 10 110 2z m-2265 -78 c15 -16 20 -40
25 -110 4 -49 10 -108 15 -130 12 -53 12 -52 -6 -59 -9 -3 -44 14 -88 44 -72
49 -140 80 -177 80 -22 0 -22 -1 -8 73 9 52 8 60 -10 84 -12 14 -21 30 -21 36
0 6 47 8 125 5 108 -3 128 -7 145 -23z m-355 -70 c14 -13 25 -28 25 -32 0 -22
-248 -223 -274 -223 -3 0 -6 16 -6 35 0 41 63 172 93 195 75 56 124 64 162 25z
m3047 -136 c38 -40 52 -66 73 -130 27 -85 30 -105 17 -113 -4 -2 -60 46 -125
108 -101 97 -117 116 -117 143 0 71 82 66 152 -8z m-2854 -54 c41 -19 56 -32
67 -59 24 -56 20 -102 -11 -123 -14 -10 -34 -26 -44 -35 -10 -9 -36 -18 -57
-20 -41 -3 -40 -2 -27 -74 8 -43 -19 -53 -60 -23 -20 15 -31 18 -34 11 -2 -7
-13 -10 -29 -6 -54 14 -46 -42 16 -100 34 -33 30 -46 -23 -73 -46 -23 -86 -64
-86 -87 0 -12 -5 -28 -10 -36 -15 -22 -64 36 -108 130 -29 61 -36 89 -40 155
-3 72 -1 84 20 115 35 51 70 60 120 32 32 -19 42 -21 54 -11 12 10 21 9 43 -4
16 -9 31 -14 35 -10 14 14 5 53 -20 82 -17 20 -24 39 -21 51 3 11 0 33 -6 50
-13 34 -11 37 40 56 48 18 111 10 181 -21z m2574 -62 c21 -9 38 -20 38 -24 0
-5 -11 -25 -25 -45 -29 -42 -32 -76 -9 -94 13 -11 20 -8 45 23 20 24 39 37 55
37 13 0 24 -4 24 -9 0 -5 7 -16 15 -24 12 -12 23 -13 50 -6 42 12 64 2 99 -44
75 -100 58 -296 -35 -400 -33 -38 -40 -41 -58 -29 -11 6 -32 12 -46 12 -15 0
-25 6 -25 15 0 16 -76 99 -100 108 -13 5 -12 8 4 19 10 7 40 27 65 44 36 24
46 38 48 60 1 16 4 50 8 75 6 36 4 49 -10 62 -23 23 -30 22 -55 -13 -12 -16
-28 -30 -37 -30 -8 0 -29 -16 -46 -35 -40 -45 -84 -49 -89 -7 -2 18 -8 26 -18
23 -44 -10 -121 8 -152 36 -18 16 -20 26 -14 82 6 70 22 94 85 133 40 25 98
47 125 48 11 0 37 -8 58 -17z m-2238 -319 c27 -54 49 -111 49 -127 0 -34 -48
-87 -79 -87 -24 0 -34 -23 -34 -82 0 -43 -16 -50 -45 -18 -10 11 -27 20 -37
20 -27 0 -62 81 -55 127 3 18 23 60 44 91 22 32 49 86 62 121 13 36 27 61 34
58 7 -2 34 -48 61 -103z m1853 24 c6 -7 16 -30 23 -51 7 -23 39 -67 76 -107
58 -61 64 -71 64 -110 0 -49 -24 -106 -54 -125 -14 -9 -39 -11 -73 -8 -53 5
-53 6 -53 40 0 22 -8 42 -22 56 -13 13 -37 45 -55 72 -28 44 -30 51 -18 66 8
8 15 21 15 27 0 7 3 12 8 12 4 0 12 12 19 28 50 122 51 124 70 100z m-2137
-154 c0 -14 -4 -33 -10 -43 -5 -10 -14 -45 -19 -77 -9 -54 -8 -63 16 -112 38
-76 23 -86 -63 -41 -81 41 -105 71 -112 137 -7 78 31 134 104 151 70 16 84 14
84 -15z m446 -131 c15 -21 61 -70 102 -110 88 -85 91 -108 15 -97 -62 8 -141
42 -153 65 -6 10 -10 33 -10 52 0 19 -7 40 -15 47 -16 13 -12 43 7 68 16 19
23 15 54 -25z m2064 9 c63 -47 48 -135 -33 -189 -46 -31 -111 -52 -123 -40 -6
6 15 76 28 91 4 5 4 45 1 89 l-6 80 54 -6 c29 -4 65 -15 79 -25z m-566 -83
c-2 -46 -19 -106 -36 -126 -33 -41 -206 -90 -222 -64 -4 6 -3 11 3 11 5 0 13
9 16 20 3 11 13 20 20 20 8 0 56 40 107 90 51 49 98 88 103 86 6 -1 9 -18 9
-37z m-1459 -181 c14 -6 25 -14 25 -17 0 -3 -28 -22 -61 -41 -34 -19 -87 -62
-118 -95 -65 -70 -91 -134 -91 -226 0 -32 -4 -61 -10 -64 -32 -20 -98 127 -71
159 28 34 61 110 61 142 0 72 44 118 135 140 65 16 98 17 130 2z m1452 -64
c54 -7 99 -44 124 -101 13 -31 24 -43 39 -43 11 0 20 -5 20 -12 0 -6 10 -22
21 -34 18 -19 20 -30 15 -68 -12 -80 -73 -141 -97 -96 -4 8 -20 46 -36 85 -34
85 -109 164 -202 214 -105 56 -60 77 116 55z m-1162 -72 c42 -23 50 -32 53
-60 4 -36 -18 -62 -75 -88 -18 -8 -40 -25 -49 -39 -10 -15 -26 -25 -40 -25
-26 0 -39 -19 -49 -72 -8 -45 -47 -85 -62 -66 -6 7 -14 23 -17 36 -11 34 -49
28 -80 -13 -15 -19 -36 -39 -46 -45 -66 -35 -127 122 -91 233 17 51 22 50 97
-21 41 -40 58 -37 62 9 2 19 9 39 16 44 7 6 22 28 34 51 31 61 67 81 152 83
31 0 60 -8 95 -27z m230 18 c3 -5 32 -12 65 -16 48 -5 60 -10 60 -24 0 -9 5
-31 11 -49 9 -24 16 -31 33 -29 16 2 23 13 30 45 10 45 17 49 100 55 53 4 55
-12 8 -64 -21 -24 -58 -71 -81 -105 -23 -35 -44 -63 -46 -63 -2 0 -16 5 -30
12 -18 8 -31 8 -49 0 -22 -10 -26 -6 -62 56 -22 37 -58 90 -81 119 -24 29 -43
57 -43 63 0 13 77 13 85 0z m759 -68 c59 -40 94 -104 95 -173 1 -36 6 -61 16
-69 17 -14 51 -5 59 15 9 25 26 17 42 -20 25 -61 -6 -132 -79 -180 -38 -25
-69 -13 -96 36 -20 36 -27 40 -50 35 -55 -14 -55 -14 -62 44 -5 39 -13 59 -28
69 -15 10 -21 24 -21 52 0 30 -6 42 -26 56 -15 10 -38 28 -51 41 -21 19 -23
25 -12 38 11 13 9 19 -11 34 -27 21 -22 46 12 53 13 2 57 2 98 0 60 -4 83 -10
114 -31z m-259 -145 c15 -12 17 -21 10 -63 -10 -67 -11 -124 -1 -155 6 -23 4
-27 -18 -33 -26 -6 -35 -29 -16 -41 5 -3 14 -15 20 -25 9 -16 4 -22 -35 -39
-27 -12 -52 -32 -63 -50 -19 -34 -25 -36 -71 -20 -47 17 -64 57 -60 148 2 42
0 90 -5 108 -14 59 43 131 113 140 26 4 45 13 52 24 11 22 47 25 74 6z m-572
-50 c64 -45 75 -69 58 -127 -6 -20 -11 -71 -11 -111 0 -52 -5 -81 -16 -97 -21
-30 -89 -64 -122 -60 -25 3 -27 7 -27 48 0 40 -3 47 -38 69 l-37 24 20 22 c26
27 25 40 -2 60 l-23 15 23 40 c12 21 22 53 22 70 0 43 25 88 52 92 28 5 29 4
101 -45z m-450 -295 c30 -26 19 -32 -67 -32 l-84 0 5 43 c8 71 7 70 70 36 32
-18 66 -39 76 -47z m1437 -4 c0 -7 3 -23 6 -35 6 -22 4 -23 -69 -23 -42 0 -78
4 -81 8 -3 5 23 20 57 34 73 30 87 32 87 16z"/>
</g>
</svg>
