<?xml version="1.0" encoding="UTF-8" standalone="no"?>
<!DOCTYPE svg PUBLIC "-//W3C//DTD SVG 1.1//EN"
"http://www.w3.org/Graphics/SVG/1.1/DTD/svg11.dtd">
<svg xmlns="http://www.w3.org/2000/svg"
xmlns:xlink="http://www.w3.org/1999/xlink" xml:space="preserve"
width="601pt" height="612pt"
viewBox="0 0 601 612">
<g font-family="sans-serif" font-weight="bold">
<g transform="translate(0.21611,0) scale(0.49925) translate(1214.07691,236.3335)" stroke="#7b7569" fill="none">
<path d="M-445.5496,776.0852 L-734.5364,776.0852 -734.5364,512.1062 -445.5495,512.1062 z" fill="#7b7569"/>

<path d="M-727.3297,543.1272 L-727.3297,742.1062 -971.3297,742.1062 -971.3297,512.1062 -807.2055,512.1062 -727.3297,512.1062 z" fill="#7b7569"/>

<path d="M-1072.4209,244.9217 L-762.0152,244.9217 -762.0152,514.9217 -1078.9612,514.9217 -1142.2692,374.2642 -1144.8495,258.2776 -1189.1777,259.2637 -1189.1777,109.1512 -1072.4209,109.1512 z" fill="#7b7569"/>

<path d="M-137.3802,776.0852 L-460.5495,776.0852 -460.5495,512.1062 -137.3802,512.1062 z" fill="#7b7569"/>

<path d="M-226.0395,519.1512 L-426.6198,519.1512 -426.6198,109.1512 -226.0395,109.1512 z" fill="#7b7569"/>

<path d="M-420.1209,514.9217 L-768.9545,514.9217 -768.9545,-53.3205 -665.999,-53.3205 -665.999,-73.2783 -420.1209,-73.2783 z" fill="#7b7569"/>

<path d="M-73.6777,164.2346 L-58.5973,190.3547 -58.5973,489.5037 -137.3802,489.5037 -137.3802,520.0852 -231.0708,520.0852 -231.0708,109.1512 -73.6777,109.1512 z" fill="#7b7569"/>

<path d="M-73.6777,119.1512 L-180.0755,119.1512 -180.0755,-63.7548 -73.6777,-63.7548 z" fill="#7b7569"/>

<path d="M-658.8648,-46.9088 L-762.0152,-46.9088 -762.0152,253.8788 -892.0152,253.8788 -892.0152,-51.1212 -892.0152,-156.1036 -658.8648,-156.9265 z" fill="#7b7569"/>

<path d="M-1072.4209,118.0782 L-1189.1777,118.0782 -1189.1777,-155.03 -1072.4209,-155.03 z" fill="#7b7569"/>

<path d="M-888.3712,254.5085 L-1078.5664,254.5085 -1078.5664,-155.4613 -888.3712,-155.4613 z" fill="#7b7569"/>

<path d="M-170.4986,113.8696 L-426.6198,113.8696 -426.6198,-67.653 -501.0099,-67.653 -501.0099,-236.3335 -170.4986,-236.3335 z" fill="#7b7569"/>
</g><g transform="translate(0.21611,0) scale(0.49925) translate(1214.07691,236.3335)" stroke="#d9d4ad" fill="none">
<path d="M-455.5496,771.0852 L-455.5495,771.0852 -455.5495,517.1062 -455.5495,517.1062 -729.5364,517.1062 -729.5364,577.0081 -732.3297,577.0081 -732.3297,620.3503 -729.5364,620.3503 -729.5364,771.0852 -629.5364,771.0852 -629.5364,776.0852 -539.5364,776.0852 -539.5364,771.0852 z" fill="#d9d4ad"/>

<path d="M-732.3297,517.1062 L-807.2055,517.1062 -856.3297,517.1062 -856.3297,509.9217 -906.3297,509.9217 -906.3297,517.1062 -966.3297,517.1062 -966.3297,737.1062 -732.3297,737.1062 -732.3297,543.1272 z" fill="#d9d4ad"/>

<path d="M-1077.4209,249.9217 L-1077.4209,114.1512 -1184.1777,114.1512 -1184.1777,254.1512 -1139.9619,253.1676 -1139.1951,287.6367 -1144.1939,287.7479 -1142.4143,367.7397 -1137.4156,367.6285 -1137.293,373.1379 -1075.7285,509.9217 -767.0152,509.9217 -767.0152,249.9217 z" fill="#d9d4ad"/>

<path d="M-455.5495,517.1062 L-455.5495,771.0852 -142.3802,771.0852 -142.3802,517.1062 -263.2641,517.1062 -263.2641,514.1512 -373.3762,514.1512 -373.3762,517.1062 z" fill="#d9d4ad"/>

<path d="M-421.6198,114.1512 L-421.6198,514.1512 -231.0395,514.1512 -231.0395,462.79 -226.0708,462.79 -226.0708,362.3972 -231.0395,362.3972 -231.0395,114.1512 z" fill="#d9d4ad"/>

<path d="M-425.1209,509.9217 L-425.1209,-68.2783 -660.999,-68.2783 -660.999,-48.3205 -763.9545,-48.3205 -763.9545,509.9217 -729.4655,509.9217 -729.4655,517.1062 -425.1209,517.1062 -425.1209,509.9217 z" fill="#d9d4ad"/>

<path d="M-63.5973,484.5037 L-63.5973,381.7456 -58.5973,381.7456 -58.5973,324.2749 -63.5973,324.2749 -63.5973,191.6945 -78.6777,165.5744 -78.6777,114.1512 -226.0708,114.1512 -226.0708,515.0852 -142.3802,515.0852 -142.3802,484.5037 z" fill="#d9d4ad"/>

<path d="M-175.0755,-58.7548 L-175.0755,114.1512 -78.6777,114.1512 -78.6777,-58.7548 z" fill="#d9d4ad"/>

<path d="M-887.0152,-151.1212 L-887.0152,-51.1212 -887.0152,248.8788 -767.0152,248.8788 -767.0152,-51.9088 -663.8648,-51.9088 -663.8648,-151.9088 z" fill="#d9d4ad"/>

<path d="M-1184.1777,-150.03 L-1184.1777,113.0782 -1077.4209,113.0782 -1077.4209,-150.03 z" fill="#d9d4ad"/>

<path d="M-1073.5664,-150.4613 L-1073.5664,249.5085 -893.3712,249.5085 -893.3712,-150.4613 z" fill="#d9d4ad"/>

<path d="M-496.0099,-72.653 L-421.6198,-72.653 -421.6198,108.8696 -175.4986,108.8696 -175.4986,-231.3335 -496.0099,-231.3335 z" fill="#d9d4ad"/>
</g><g transform="translate(0.21611,0) scale(0.49925) translate(1214.07691,236.3335)" stroke="#7b7569" stroke-width="1.80272" fill="none">
<path d="M-757.0142,514.9227 L-767.0162,514.9227 -767.0162,509.9207 -757.0142,509.9207 z" fill="#7b7569"/>

<path d="M-455.5485,582.3332 L-461.5505,582.3332 -461.5505,517.1052 -455.5485,517.1052 z" fill="#7b7569"/>

<path d="M-455.5486,771.0862 L-461.5506,771.0862 -461.5506,689.3869 -455.5486,689.3869 z" fill="#7b7569"/>

<path d="M-642.5229,516.1072 L-729.5374,516.1072 -729.5374,510.1052 -642.5229,510.1052 z" fill="#7b7569"/>

<path d="M-421.6188,517.1072 L-615.2745,517.1072 -615.2745,511.1052 -421.6188,511.1052 z" fill="#7b7569"/>

<path d="M-146.7579,114.1522 L-175.0765,114.1522 -175.0765,109.1502 -146.7579,109.1502 z" fill="#7b7569"/>

<path d="M-78.6767,114.1522 L-95.8145,114.1522 -95.8145,109.1502 -78.6767,109.1502 z" fill="#7b7569"/>
</g><g transform="translate(0.21611,0) scale(0.49925) translate(1214.07691,236.3335)" stroke="#111111" stroke-width="1.80272" fill="none">
<path d="M-1137.293,373.1379 L-1075.7285,509.9217 -906.3297,509.9217 -906.3297,517.1062 -966.3297,517.1062 -966.3297,737.1062 -732.3297,737.1062 -732.3297,620.3503 -729.5364,620.3503 -729.5364,771.0852 -629.5364,771.0852 -629.5364,776.0852 -734.5364,776.0852 -734.5364,742.1062 -971.3297,742.1062 -971.3297,514.9217 -1078.9612,514.9217 -1142.2692,374.2642 -1142.4143,367.7398 -1137.4156,367.6285 z M-58.5973,489.5037 L-137.3802,489.5037 -137.3802,776.0852 -539.5364,776.0852 -539.5364,771.0852 -461.5506,771.0852 -461.5506,689.3869 -455.5486,689.3869 -455.5486,771.0852 -142.3802,771.0852 -142.3802,517.1062 -263.2641,517.1062 -263.2641,514.1512 -231.0395,514.1512 -231.0395,462.79 -226.0708,462.79 -226.0708,515.0852 -142.3802,515.0852 -142.3802,484.5037 -63.5973,484.5037 -63.5973,381.7456 -58.5973,381.7456 z M-170.4986,-63.7548 L-73.6777,-63.7548 -73.6777,164.2346 -58.5973,190.3547 -58.5973,324.2749 -63.5973,324.2749 -63.5973,191.6945 -78.6777,165.5744 -78.6777,114.1522 -95.8145,114.1522 -95.8145,109.1502 -78.6777,109.1502 -78.6777,-58.7548 -175.0755,-58.7548 -175.0755,109.1502 -146.7579,109.1502 -146.7579,114.1522 -175.0765,114.1522 -175.0765,114.1512 -226.0708,114.1512 -226.0708,362.3972 -231.0395,362.3972 -231.0395,114.1512 -421.6198,114.1512 -421.6198,511.1052 -421.6188,511.1052 -421.6188,514.1512 -373.3762,514.1512 -373.3762,517.1062 -421.6188,517.1062 -421.6188,517.1072 -455.5485,517.1072 -455.5485,582.3332 -461.5505,582.3332 -461.5505,517.1072 -615.2745,517.1072 -615.2745,511.1052 -425.1209,511.1052 -425.1209,-68.2783 -660.999,-68.2783 -660.999,-48.3205 -763.9545,-48.3205 -763.9545,509.9207 -757.0142,509.9207 -757.0142,509.9217 -729.4655,509.9217 -729.4655,510.1052 -642.5229,510.1052 -642.5229,516.1072 -729.4655,516.1072 -729.4655,517.1062 -729.5364,517.1062 -729.5364,577.0081 -732.3297,577.0081 -732.3297,517.1062 -856.3297,517.1062 -856.3297,509.9217 -767.0162,509.9217 -767.0162,509.9207 -767.0152,509.9207 -767.0152,249.9217 -1077.4209,249.9217 -1077.4209,114.1512 -1184.1777,114.1512 -1184.1777,254.1512 -1139.9619,253.1676 -1139.1951,287.6367 -1144.1939,287.748 -1144.8495,258.2776 -1189.1777,259.2637 -1189.1777,-155.03 -1078.5664,-155.03 -1078.5664,-155.4613 -892.0152,-155.4613 -892.0152,-156.1036 -658.8648,-156.9265 -658.8648,-73.2783 -501.0099,-73.2783 -501.0099,-236.3335 -170.4986,-236.3335 z M-1073.5664,-150.4613 L-1073.5664,249.5085 -893.3712,249.5085 -893.3712,-150.4613 z M-887.0152,-151.1212 L-887.0152,248.8788 -767.0152,248.8788 -767.0152,-51.9088 -663.8648,-51.9088 -663.8648,-151.9088 z M-1184.1777,-150.03 L-1184.1777,113.0782 -1077.4209,113.0782 -1077.4209,-150.03 z M-496.0099,-231.3335 L-496.0099,-72.653 -421.6198,-72.653 -421.6198,108.8696 -175.4986,108.8696 -175.4986,-231.3335 z"/>
</g><g transform="translate(0.21611,0) scale(0.49925) translate(1214.07691,236.3335)" stroke="#ffffff" stroke-width="0.60091" opacity="1" fill="none">
<path d="M-808.29856,989.51584 L-668.29856,989.51584 -668.29856,931.17703 -808.29856,931.17703 z" fill="#ffffff"/>
</g><g transform="translate(0.21611,0) scale(0.49925) translate(1214.07691,236.3335)" stroke="#000000" stroke-width="0.60091" opacity="1" fill="none">
<path d="M-808.29856,989.51584 L-668.29856,989.51584 -668.29856,931.17703 -808.29856,931.17703 z"/>

<path d="M-804.29856,989.51584 L-804.29856,931.17703"/>

<path d="M-672.29856,989.51584 L-672.29856,931.17703"/>

<line x1="-808.29856" y1="942.84479" x2="-668.29856" y2="942.84479"/>

<line x1="-808.29856" y1="954.51255" x2="-668.29856" y2="954.51255"/>

<line x1="-808.29856" y1="966.18031" x2="-668.29856" y2="966.18031"/>

<line x1="-808.29856" y1="977.84807" x2="-668.29856" y2="977.84807"/>

<line x1="-738.29856" y1="989.51584" x2="-738.29856" y2="931.17703"/>

<line x1="-748.29856" y1="946.17703" x2="-738.29856" y2="931.17703"/>

<line x1="-728.29856" y1="946.17703" x2="-738.29856" y2="931.17703"/>
</g><g transform="translate(0.21611,0) scale(0.49925) translate(1214.07691,236.3335)" stroke="#ffffff" stroke-width="0.60091" opacity="1" fill="none">
<path d="M-1078.29856,897.25903 L-808.29856,897.25903 -808.29856,856.3027 -1078.29856,856.3027 z" fill="#ffffff"/>
</g><g transform="translate(0.21611,0) scale(0.49925) translate(1214.07691,236.3335)" stroke="#000000" stroke-width="0.60091" opacity="1" fill="none">
<path d="M-1078.29856,897.25903 L-808.29856,897.25903 -808.29856,856.3027 -1078.29856,856.3027 z"/>

<path d="M-1074.29856,897.25903 L-1074.29856,856.3027"/>

<path d="M-812.29856,897.25903 L-812.29856,856.3027"/>

<line x1="-1078.29856" y1="866.54178" x2="-808.29856" y2="866.54178"/>

<line x1="-1078.29856" y1="876.78086" x2="-808.29856" y2="876.78086"/>

<line x1="-1078.29856" y1="887.01994" x2="-808.29856" y2="887.01994"/>

<line x1="-943.29856" y1="897.25903" x2="-943.29856" y2="856.3027"/>

<line x1="-953.29856" y1="871.3027" x2="-943.29856" y2="856.3027"/>

<line x1="-933.29856" y1="871.3027" x2="-943.29856" y2="856.3027"/>

<path d="M-539.5364,771.0852 L-544.5364,771.0852 -544.5364,856.0852 C-588.71918,856.0852 -624.5364,820.26798 -624.5364,776.0852 L-624.5364,771.0852 -629.5364,771.0852"/>

<line x1="-539.5364" y1="776.0852" x2="-629.5364" y2="776.0852"/>

<line x1="-549.5364" y1="776.0852" x2="-549.5364" y2="855.89545"/>

<path d="M-729.5364,620.35025 L-729.5364,615.35025 -765.67183,615.35025 C-765.67183,596.9359 -750.74405,582.00812 -732.3297,582.00812 L-729.5364,582.00812 -729.5364,577.00812"/>

<line x1="-732.3297" y1="620.35025" x2="-732.3297" y2="577.00812"/>

<line x1="-732.3297" y1="610.35025" x2="-765.59193" y2="610.35025"/>

<path d="M-906.32968,517.10619 L-901.32968,517.10619 -901.32968,469.92174 C-879.23829,469.92174 -861.32968,487.83035 -861.32968,509.92174 L-861.32968,517.10619 -856.32968,517.10619"/>

<line x1="-906.32968" y1="509.92174" x2="-856.32968" y2="509.92174"/>

<line x1="-896.32968" y1="509.92174" x2="-896.32968" y2="470.022"/>

<path d="M-1139.19509,287.63674 L-1139.08388,292.63551 -1214.07691,294.30383 C-1213.21694,332.96059 -1181.1823,363.60095 -1142.52553,362.74097 L-1137.52677,362.62977 -1137.41556,367.62853"/>

<line x1="-1144.19385" y1="287.74795" x2="-1142.41433" y2="367.73974"/>

<line x1="-1143.97144" y1="297.74548" x2="-1213.79897" y2="299.29888"/>

<path d="M-373.37624,517.10619 L-368.37624,517.10619 -368.37624,414.03908 C-313.08582,414.03908 -268.26408,458.86082 -268.26408,514.15124 L-268.26408,517.10619 -263.26408,517.10619"/>

<line x1="-373.37624" y1="514.15124" x2="-263.26408" y2="514.15124"/>

<line x1="-363.37624" y1="514.15124" x2="-363.37624" y2="414.27274"/>

<path d="M-231.03952,462.79 L-231.03952,457.79 -135.67802,457.79 C-135.67802,407.86745 -176.14824,367.39723 -226.07079,367.39723 L-231.03952,367.39723 -231.03952,362.39723"/>

<line x1="-226.07079" y1="462.79" x2="-226.07079" y2="362.39723"/>

<line x1="-226.07079" y1="452.79" x2="-135.89164" y2="452.79"/>

<path d="M-63.59727,324.27493 L-63.59727,329.27493 -11.12656,329.27493 C-11.12656,355.49228 -32.37993,376.74564 -58.59727,376.74564 L-63.59727,376.74564 -63.59727,381.74564"/>

<line x1="-58.59727" y1="324.27493" x2="-58.59727" y2="381.74564"/>

<line x1="-58.59727" y1="334.27493" x2="-11.2415" y2="334.27493"/></g></g>
</svg>